<svg width="48" height="48" viewBox="0 0 48 48" fill="none" xmlns="http://www.w3.org/2000/svg">
<rect width="48" height="48" rx="12" fill="#F3F5F9"/>
<path d="M14 24C14 26.6522 15.0536 29.1957 16.9289 31.0711C18.8043 32.9464 21.3478 34 24 34C26.6522 34 29.1957 32.9464 31.0711 31.0711C32.9464 29.1957 34 26.6522 34 24C34 21.3478 32.9464 18.8043 31.0711 16.9289C29.1957 15.0536 26.6522 14 24 14C21.3478 14 18.8043 15.0536 16.9289 16.9289C15.0536 18.8043 14 21.3478 14 24Z" stroke="#4E9CFE" stroke-width="1.5"/>
<path d="M24 29V23V29Z" fill="#4E9CFE"/>
<path d="M24 29V23" stroke="#4E9CFE" stroke-width="1.5" stroke-linecap="round"/>
<path d="M23.5 20C23.5 19.8674 23.5527 19.7402 23.6464 19.6464C23.7402 19.5527 23.8674 19.5 24 19.5C24.1326 19.5 24.2598 19.5527 24.3536 19.6464C24.4473 19.7402 24.5 19.8674 24.5 20C24.5 20.1326 24.4473 20.2598 24.3536 20.3536C24.2598 20.4473 24.1326 20.5 24 20.5C23.8674 20.5 23.7402 20.4473 23.6464 20.3536C23.5527 20.2598 23.5 20.1326 23.5 20Z" fill="#4E9CFE" stroke="#4E9CFE"/>
</svg>
