<svg width="25" height="24" viewBox="0 0 25 24" fill="none" xmlns="http://www.w3.org/2000/svg">
<path d="M10 2C9.17157 2 8.5 2.67157 8.5 3.5V4.5C8.5 5.32843 9.17157 6 10 6H15C15.8284 6 16.5 5.32843 16.5 4.5V3.5C16.5 2.67157 15.8284 2 15 2H10Z" fill="#4E9CFE"/>
<path fill-rule="evenodd" clip-rule="evenodd" d="M7 4.03662C5.74209 4.10719 4.94798 4.30764 4.37868 4.87694C3.5 5.75562 3.5 7.16983 3.5 9.99826V15.9983C3.5 18.8267 3.5 20.2409 4.37868 21.1196C5.25736 21.9983 6.67157 21.9983 9.5 21.9983H15.5C18.3284 21.9983 19.7426 21.9983 20.6213 21.1196C21.5 20.2409 21.5 18.8267 21.5 15.9983V9.99826C21.5 7.16983 21.5 5.75562 20.6213 4.87694C20.052 4.30764 19.2579 4.10719 18 4.03662V4.5C18 6.15685 16.6569 7.5 15 7.5H10C8.34315 7.5 7 6.15685 7 4.5V4.03662ZM7.5 9.75C7.08579 9.75 6.75 10.0858 6.75 10.5C6.75 10.9142 7.08579 11.25 7.5 11.25H8C8.41421 11.25 8.75 10.9142 8.75 10.5C8.75 10.0858 8.41421 9.75 8 9.75H7.5ZM11 9.75C10.5858 9.75 10.25 10.0858 10.25 10.5C10.25 10.9142 10.5858 11.25 11 11.25H17.5C17.9142 11.25 18.25 10.9142 18.25 10.5C18.25 10.0858 17.9142 9.75 17.5 9.75H11ZM7.5 13.25C7.08579 13.25 6.75 13.5858 6.75 14C6.75 14.4142 7.08579 14.75 7.5 14.75H8C8.41421 14.75 8.75 14.4142 8.75 14C8.75 13.5858 8.41421 13.25 8 13.25H7.5ZM11 13.25C10.5858 13.25 10.25 13.5858 10.25 14C10.25 14.4142 10.5858 14.75 11 14.75H17.5C17.9142 14.75 18.25 14.4142 18.25 14C18.25 13.5858 17.9142 13.25 17.5 13.25H11ZM7.5 16.75C7.08579 16.75 6.75 17.0858 6.75 17.5C6.75 17.9142 7.08579 18.25 7.5 18.25H8C8.41421 18.25 8.75 17.9142 8.75 17.5C8.75 17.0858 8.41421 16.75 8 16.75H7.5ZM11 16.75C10.5858 16.75 10.25 17.0858 10.25 17.5C10.25 17.9142 10.5858 18.25 11 18.25H17.5C17.9142 18.25 18.25 17.9142 18.25 17.5C18.25 17.0858 17.9142 16.75 17.5 16.75H11Z" fill="#4E9CFE"/>
</svg>
