<svg width="25" height="24" viewBox="0 0 25 24" fill="none" xmlns="http://www.w3.org/2000/svg">
<path d="M16.5 4.00195C18.675 4.01406 19.8529 4.11051 20.6213 4.87889C21.5 5.75757 21.5 7.17179 21.5 10.0002V16.0002C21.5 18.8286 21.5 20.2429 20.6213 21.1215C19.7426 22.0002 18.3284 22.0002 15.5 22.0002H9.5C6.67157 22.0002 5.25736 22.0002 4.37868 21.1215C3.5 20.2429 3.5 18.8286 3.5 16.0002V10.0002C3.5 7.17179 3.5 5.75757 4.37868 4.87889C5.14706 4.11051 6.32497 4.01406 8.5 4.00195" stroke="#8E9FC7" stroke-width="1.5"/>
<path d="M11 14H17.5" stroke="#8E9FC7" stroke-width="1.5" stroke-linecap="round"/>
<path d="M7.5 14H8" stroke="#8E9FC7" stroke-width="1.5" stroke-linecap="round"/>
<path d="M7.5 10.5H8" stroke="#8E9FC7" stroke-width="1.5" stroke-linecap="round"/>
<path d="M7.5 17.5H8" stroke="#8E9FC7" stroke-width="1.5" stroke-linecap="round"/>
<path d="M11 10.5H17.5" stroke="#8E9FC7" stroke-width="1.5" stroke-linecap="round"/>
<path d="M11 17.5H17.5" stroke="#8E9FC7" stroke-width="1.5" stroke-linecap="round"/>
<path d="M8.5 3.5C8.5 2.67157 9.17157 2 10 2H15C15.8284 2 16.5 2.67157 16.5 3.5V4.5C16.5 5.32843 15.8284 6 15 6H10C9.17157 6 8.5 5.32843 8.5 4.5V3.5Z" stroke="#8E9FC7" stroke-width="1.5"/>
</svg>
