<svg width="50" height="57" viewBox="0 0 50 57" fill="none" xmlns="http://www.w3.org/2000/svg">
<path d="M0.326817 0.744248C-0.791767 6.05752 1.12579 11.3308 3.60265 15.965C5.79987 19.9999 8.43654 23.7951 11.3528 27.3106C17.1455 34.2219 24.2965 40.0145 32.2464 44.2891C36.7207 46.6861 41.4747 48.6436 46.3885 50.0019C47.6269 50.3614 48.1463 48.4039 46.9078 48.0843C38.4785 45.7273 30.5286 41.6924 23.6173 36.3392C16.746 31.0259 10.8335 24.4343 6.43907 16.9238C3.72251 12.2896 1.08585 6.77661 2.24438 1.26359C2.36423 0.744249 2.08458 0.184955 1.56524 0.0251568C1.04589 -0.0946915 0.446663 0.224905 0.326817 0.744248Z" fill="#4E9CFE"/>
<path d="M37.5994 31.7456C40.276 36.14 42.9127 40.5744 45.5893 44.9689C45.9089 45.4882 46.1886 45.9676 46.5082 46.4869C46.7878 46.9663 47.1873 47.4457 47.3471 48.005C47.5868 48.7241 46.7878 49.0836 46.1886 49.2834C43.8715 50.1623 41.4745 50.8814 39.0776 51.6804C36.3211 52.5992 33.5645 53.558 30.808 54.4768C29.6096 54.8763 30.1289 56.8338 31.3274 56.3944C33.964 55.5155 36.6007 54.6366 39.2374 53.7178C41.7542 52.8788 44.3109 52.1198 46.7878 51.161C47.7865 50.7615 48.8252 50.2022 49.2247 49.1635C49.7041 47.8852 48.985 46.6867 48.3458 45.648C46.9476 43.3309 45.5494 41.0139 44.1511 38.6968C42.5532 36.0202 40.9552 33.3835 39.3173 30.7069C38.6781 29.6283 36.9602 30.627 37.5994 31.7456Z" fill="#4E9CFE"/>
</svg>
