<svg width="24" height="24" viewBox="0 0 24 24" fill="none" xmlns="http://www.w3.org/2000/svg">
<g clip-path="url(#clip0_911_4419)">
<path d="M16.4988 0C15.2193 0.0884995 13.7238 0.907495 12.8523 1.97399C12.0573 2.94148 11.4033 4.37847 11.6583 5.77497C13.0563 5.81847 14.5008 4.97997 15.3378 3.89548C16.1208 2.88598 16.7133 1.45799 16.4988 0Z" fill="black"/>
<path d="M21.5553 8.05195C20.3268 6.51146 18.6003 5.61746 16.9698 5.61746C14.8174 5.61746 13.9069 6.64796 12.4114 6.64796C10.8694 6.64796 9.69789 5.62046 7.8364 5.62046C6.00791 5.62046 4.06092 6.73796 2.82643 8.64894C1.09094 11.3399 1.38794 16.3994 4.20042 20.7089C5.20692 22.2509 6.55091 23.9849 8.3089 23.9999C9.87339 24.0149 10.3144 22.9964 12.4339 22.9859C14.5534 22.9739 14.9554 24.0134 16.5169 23.9969C18.2763 23.9834 19.6938 22.0619 20.7003 20.5199C21.4218 19.4144 21.6903 18.8579 22.2498 17.6099C18.1803 16.0604 17.5278 10.2734 21.5553 8.05195Z" fill="black"/>
</g>
<defs>
<clipPath id="clip0_911_4419">
<rect width="24" height="24" fill="white"/>
</clipPath>
</defs>
</svg>
