<svg width="70" height="70" viewBox="0 0 70 70" fill="none" xmlns="http://www.w3.org/2000/svg">
<circle cx="35" cy="35" r="35" fill="#F3F5F9"/>
<path d="M48.7366 43.061L40.3006 28.052C39.5845 26.777 38.8696 25.508 38.1556 24.2333C37.7686 23.4803 37.2862 22.6937 36.4816 22.3313C35.938 22.0778 35.4052 21.9383 34.8016 21.9773C33.7735 22.0364 32.8126 22.6136 32.2636 23.4833C32.0797 23.8088 31.9021 24.1364 31.7119 24.4613C30.9472 25.8278 30.1744 27.1958 29.4079 28.5623C26.6596 33.5471 23.752 38.4494 21.0832 43.475C21.1162 43.343 21.1762 43.22 21.2392 43.103C19.9267 45.1961 21.4498 48.0482 23.9452 48.0317C24.3082 48.0347 24.6742 48.0317 25.0372 48.0317H46.0549C48.5797 48.0092 50.071 45.1916 48.7369 43.0607L48.7366 43.061ZM36.1426 43.349C35.1457 44.3531 33.3808 43.6232 33.3886 42.209C33.3634 41.3435 34.1446 40.5809 35.0026 40.595C36.4198 40.5818 37.1536 42.3641 36.1426 43.349ZM36.6136 37.262C36.6235 38.6798 34.8472 39.41 33.8596 38.402C33.5716 38.108 33.3886 37.673 33.3886 37.262V32.765C33.4696 30.6329 36.5368 30.635 36.6136 32.765V37.262Z" fill="#4E9CFE"/>
<path d="M21.083 43.475C21.116 43.343 21.176 43.22 21.239 43.103C21.191 43.226 21.137 43.349 21.083 43.475Z" fill="#4E9CFE"/>
</svg>
