<svg width="110" height="110" viewBox="0 0 110 110" fill="none" xmlns="http://www.w3.org/2000/svg">
<circle cx="55" cy="55" r="55" fill="#F3F5F9"/>
<path d="M35.3618 45.3359L40.146 76.6949L40.811 81.0005H66.6714L67.0039 76.6949L71.3448 41.2705L35.3618 45.3359Z" fill="#4E9CFE"/>
<path d="M44.5419 49.3827C45.5209 57.3842 46.2228 65.4041 46.6662 73.4425C46.6846 73.6273 46.9617 73.6273 46.9432 73.4425C46.4999 65.4041 45.798 57.3657 44.819 49.3827C44.8005 49.1979 44.5234 49.1979 44.5419 49.3827Z" fill="#4B3425"/>
<path d="M54.3319 73.2949C54.0363 64.9424 53.907 56.5898 53.9625 48.2558C53.9625 48.071 53.6854 48.071 53.6854 48.2558C53.63 56.6083 53.7593 64.9609 54.0548 73.2949C54.0548 73.4797 54.3319 73.4797 54.3319 73.2949Z" fill="#4B3425"/>
<path d="M61.3142 73.4615C61.7945 64.5546 62.755 55.6846 64.1773 46.8886C64.2143 46.7223 63.9372 46.6299 63.9187 46.8147C62.4779 55.6477 61.5174 64.5361 61.0371 73.4615C61.0371 73.6278 61.3142 73.6278 61.3142 73.4615Z" fill="#4B3425"/>
<path d="M40.6815 78.9307C42.7134 78.3763 44.93 78.6904 46.9989 78.7643C49.2339 78.8567 51.4875 78.9491 53.7226 79.0415C58.1373 79.2263 62.5705 79.4111 66.9853 79.5959C67.17 79.5959 67.17 79.3187 66.9853 79.3187C62.4412 79.1339 57.8972 78.9491 53.3716 78.7643C51.1365 78.6719 48.883 78.5795 46.6479 78.4872C44.6529 78.4132 42.5656 78.1361 40.6261 78.6719C40.4229 78.7089 40.4968 78.9676 40.6815 78.9307Z" fill="#4B3425"/>
<path d="M66.6833 32.7978L56.1175 35.0523L54.2888 32.5576L46.623 34.0175L46.1612 37.1774L35.2998 39.5057L35.5399 42.7396L67.2005 34.5718L66.6833 32.7978ZM47.602 34.9599L53.8085 33.7772L54.9168 35.311L47.3064 36.9372L47.602 34.9599Z" fill="#4E9CFE"/>
<path d="M35.6139 41.8893C45.8842 39.4501 56.1729 37.1402 66.4987 34.9781C66.6649 34.9412 66.591 34.6825 66.4248 34.7194C56.0991 36.8815 45.8103 39.1914 35.54 41.6306C35.3738 41.6491 35.4476 41.9263 35.6139 41.8893Z" fill="#4B3425"/>
<path d="M56.3642 29C56.198 29 56.0133 29 55.847 29C55.6623 29 55.6623 29.2772 55.847 29.2772C56.2534 29.2957 56.6413 29.3881 57.0108 29.5544C57.177 29.6283 57.3063 29.3881 57.1585 29.3141C56.7522 29.1109 56.3088 29.0185 55.8655 29C55.8655 29.0924 55.8655 29.1848 55.8655 29.2772C56.0318 29.2772 56.2165 29.2772 56.3827 29.2772C56.5305 29.2772 56.5305 29 56.3642 29Z" fill="#4B3425"/>
<path d="M20.1861 44.7895C20.4262 44.9559 20.7587 44.9559 20.9804 44.7711C21.2021 44.5678 21.2575 44.2167 21.0912 43.958C20.9435 43.7178 20.5925 43.7362 20.3893 43.8471C20.1492 43.958 19.9829 44.2167 20.0014 44.4939C20.0199 44.6787 20.2969 44.6787 20.2785 44.4939C20.26 44.346 20.3339 44.2167 20.4632 44.1243C20.5556 44.0689 20.7403 43.9949 20.8511 44.0873C20.9804 44.1982 20.9065 44.4569 20.8142 44.5493C20.6849 44.6787 20.4632 44.6787 20.3154 44.5678C20.1861 44.4384 20.0383 44.6787 20.1861 44.7895Z" fill="#4B3425"/>
<path d="M26.0167 35.3817C25.8135 36.6937 27.2358 36.8231 28.0301 37.3774C28.8798 37.9873 28.455 38.8558 29.0645 39.5395C29.3232 39.8167 29.6187 39.9091 29.9697 39.7982C30.1359 39.7428 30.062 39.4656 29.8958 39.5395C28.9722 39.8721 29.0461 38.4677 28.8983 38.0242C28.8059 37.7655 28.6766 37.5438 28.4735 37.359C27.8085 36.7676 26.0906 36.6752 26.2753 35.4741C26.3123 35.2893 26.0537 35.2154 26.0167 35.3817Z" fill="#4B3425"/>
<path d="M71.1492 29.8339C71.4078 29.6306 71.7957 30.0002 71.5186 30.2589C71.2415 30.5176 70.9275 30.1111 71.1307 29.8523C71.2415 29.7045 71.0014 29.5752 70.8906 29.7045C70.7243 29.9263 70.7797 30.2774 70.9645 30.4622C71.1861 30.6839 71.5371 30.6285 71.7403 30.4067C71.9435 30.185 71.9619 29.8339 71.7218 29.6306C71.5001 29.4458 71.1861 29.4273 70.9645 29.6121C70.8167 29.7415 71.0014 29.9447 71.1492 29.8339Z" fill="#4B3425"/>
<path d="M69.4127 38.3582C69.579 37.5636 70.1516 36.9169 70.9644 36.7875C71.3338 36.7321 71.7032 36.8984 72.0727 36.843C72.6822 36.7506 73.0147 36.4919 73.2364 35.9375C73.3657 35.6049 73.4396 35.2353 73.7166 35.0135C73.9568 34.8103 74.2339 34.7733 74.5294 34.8103C74.8249 34.8472 75.0651 34.9951 75.3422 35.0505C75.8224 35.2353 76.1364 34.9951 76.2842 34.3483C76.2657 34.2559 76.2657 34.1635 76.3027 34.0711C76.6352 33.4243 77.2078 33.5906 77.762 33.9233C77.9097 34.0157 77.7804 34.2559 77.6142 34.1635C77.3186 33.9787 76.7645 34.2744 76.5982 34.5516C76.5613 34.6255 76.5982 34.8103 76.5613 34.9211C76.4874 35.1059 76.3766 35.2168 76.1734 35.3092C75.9702 35.4016 75.6931 35.4016 75.4715 35.3831C75.3052 35.3646 75.1574 35.2722 74.9912 35.2353C74.4186 35.1429 73.809 35.2907 73.5504 35.8266C73.2918 36.3255 73.2548 36.8799 72.6453 37.0832C72.2758 37.1941 71.8695 37.0647 71.5 37.0647C70.5949 37.0462 69.8745 37.5267 69.6898 38.4506C69.6529 38.617 69.3758 38.543 69.4127 38.3582Z" fill="#4B3425"/>
</svg>
