<svg width="110" height="110" viewBox="0 0 110 110" fill="none" xmlns="http://www.w3.org/2000/svg">
<circle cx="55" cy="55" r="55" fill="#F3F5F9"/>
<g clip-path="url(#clip0_1437_8291)">
<path d="M64.1665 57.0842C60.7208 57.0842 57.9166 54.28 57.9166 50.8342C57.9166 47.3884 60.7208 44.5842 64.1665 44.5842H68.3329V36.251C68.3329 32.8052 65.5287 30.001 62.0829 30.001H39.6875C39.0019 30.001 38.3603 30.3382 37.9709 30.9027C37.5833 31.4674 37.496 32.1864 37.7416 32.8258L52.8457 72.4094C53.1521 73.2177 53.9268 73.751 54.7916 73.751H62.0829C65.5287 73.751 68.3329 70.9468 68.3329 67.501V57.0842H64.1665Z" fill="#4E9CFE" fill-opacity="0.7"/>
<path d="M73.7852 61.0924C73.0082 60.7693 72.4997 60.009 72.4997 59.1671V52.9171H64.1666C63.0165 52.9171 62.083 51.984 62.083 50.8339C62.083 49.6838 63.0165 48.7507 64.1666 48.7507H72.4997V42.5007C72.4997 41.6588 73.0082 40.8986 73.7852 40.5754C74.166 40.4178 74.585 40.3766 74.9891 40.4572C75.3933 40.5377 75.7645 40.7363 76.0557 41.0279L84.3892 49.3611C85.2037 50.1755 85.2037 51.4923 84.3892 52.3068L76.0557 60.6404C75.7644 60.9318 75.3932 61.1303 74.989 61.2108C74.5849 61.2912 74.166 61.25 73.7852 61.0924Z" fill="#607D8B"/>
<path d="M53.0125 34.3803L40.4938 30.2074C37.6687 29.3387 35 31.4241 35 34.1677V71.6677C35 73.4491 36.1333 75.0388 37.821 75.622L50.3373 79.7948C50.7977 79.9364 51.2207 80.0013 51.6666 80.0013C53.9646 80.0013 55.833 78.1324 55.833 75.8345V38.3345C55.833 36.5534 54.6997 34.9638 53.0124 34.3802L53.0125 34.3803Z" fill="#4E9CFE"/>
</g>
<defs>
<clipPath id="clip0_1437_8291">
<rect width="50" height="50" fill="white" transform="translate(35 30)"/>
</clipPath>
</defs>
</svg>
