<svg width="80" height="75" viewBox="0 0 80 75" fill="none" xmlns="http://www.w3.org/2000/svg">
<path d="M80 37.4772C80 58.181 65.9466 74.9543 39.9773 75C13.5532 75 0 58.181 0 37.4772C0 16.7733 17.8738 0 39.9773 0C62.0807 0 80 16.7733 80 37.4772Z" fill="#FE814B"/>
<path d="M60.2614 5.1645C68.266 12.0201 73.2688 21.8921 73.2688 32.8153C73.2688 53.5192 59.2154 70.2925 33.2461 70.3382C24.6503 70.3382 17.4644 68.5558 11.5974 65.4479C18.2375 71.3894 27.7429 75 39.9772 75C65.9465 74.9543 79.9999 58.181 79.9999 37.4772C79.9999 23.7203 72.0409 11.7002 60.2614 5.1645Z" fill="#E07040"/>
<path opacity="0.3" d="M23.0585 8.04387C23.0585 8.04387 22.9978 8.13526 22.8765 8.31808C22.7401 8.50089 22.5582 8.82084 22.2853 9.14077C21.785 9.78062 21.1028 10.7404 20.2387 11.8373C19.8445 12.3858 19.4049 12.9799 18.9197 13.6197C18.4649 14.2291 17.9798 14.869 17.4644 15.5393C17.2218 15.8745 16.9641 16.1944 16.6912 16.4991C16.4486 16.8647 16.2061 17.2151 15.9635 17.5503C15.4178 18.2358 14.9175 18.9214 14.4172 19.6527C13.8714 20.3382 13.4621 21.0695 12.9163 21.755C12.416 22.4406 11.9612 23.1718 11.461 23.8574C10.9607 24.4972 10.5514 25.1828 10.0965 25.8227C9.64174 26.4625 9.2779 27.0567 8.86858 27.6508C8.50474 28.1993 8.04993 28.702 7.77705 29.2048C7.45869 29.6618 7.14032 30.0731 6.86744 30.3931C6.64004 30.7587 6.41264 31.0329 6.2762 31.2157C6.1246 31.3985 6.0488 31.49 6.0488 31.49C6.01848 31.49 6.00331 31.3681 6.00331 31.1243C5.95783 30.8958 5.91235 30.5302 5.91235 30.1188C5.91235 29.7075 5.91235 29.1591 5.91235 28.5649C5.91235 27.925 6.04879 27.2852 6.18524 26.5539C6.2762 25.8227 6.41264 25.0457 6.68552 24.223C6.91292 23.4461 7.1858 22.5777 7.54965 21.7093C7.73157 21.298 7.91349 20.8866 8.14089 20.4296C8.32281 20.0183 8.50474 19.5613 8.77762 19.1499C9.2779 18.3273 9.77819 17.4589 10.3694 16.6819C10.9607 15.9049 11.5519 15.128 12.2341 14.3967C12.8709 13.7112 13.5531 13.0256 14.2353 12.4314C14.9175 11.8373 15.6906 11.3345 16.3728 10.8318C17.055 10.3748 17.7373 9.91773 18.4195 9.59781C19.0562 9.27788 19.6929 9.00363 20.2387 8.77512C20.7844 8.5466 21.3302 8.40948 21.7395 8.31808C22.5582 8.08956 23.0585 8.04387 23.0585 8.04387Z" fill="#FFFDFF"/>
<path d="M30.1564 29.4332C30.1564 31.8098 28.2462 33.7751 25.8358 33.7751C23.4708 33.7751 21.5151 31.8098 21.5151 29.4332V26.2796C21.5151 23.903 23.4708 21.9378 25.8358 21.9378C28.2462 21.9378 30.1564 23.903 30.1564 26.2796V29.4332Z" fill="#A23901"/>
<path d="M58.0805 29.4332C58.0805 31.8098 56.1248 33.775 53.7598 33.775C51.3949 33.775 49.4392 31.8098 49.4392 29.4332V26.2796C49.4392 23.903 51.3949 21.9377 53.7598 21.9377C56.1248 21.9377 58.0805 23.903 58.0805 26.2796V29.4332Z" fill="#A23901"/>
<path d="M23.7892 52.468C30.4749 40.0366 49.7131 38.9397 55.8074 52.468C56.7625 54.5704 59.8552 52.7423 58.9001 50.6399C51.7142 34.6435 28.5647 36.0147 20.6966 50.6399C19.605 52.6966 22.6977 54.479 23.7892 52.468Z" fill="#A23901"/>
</svg>
