<svg width="80" height="75" viewBox="0 0 80 75" fill="none" xmlns="http://www.w3.org/2000/svg">
<path d="M80 37.5C80 58.2151 65.9689 74.9999 39.977 74.9999C13.571 75.0461 0 58.2151 0 37.5C0 16.7848 17.8954 0 39.977 0C62.0587 0 80 16.7848 80 37.5Z" fill="#9BB068"/>
<path d="M60.2647 5.17876C68.2693 12.0684 73.2837 21.9173 73.2837 32.8298C73.2837 53.5449 59.2526 70.3298 33.2607 70.3298C24.658 70.376 17.4355 68.5727 11.593 65.4746C18.2635 71.3932 27.7402 74.9999 39.9771 74.9999C65.9691 74.9999 80.0001 58.2151 80.0001 37.4999C80.0001 23.7207 72.0875 11.6985 60.2647 5.17876Z" fill="#93AA5B"/>
<path opacity="0.3" d="M23.0936 8.04562C23.0936 8.04562 23.0169 8.15352 22.8636 8.3693C22.7256 8.55426 22.5416 8.83169 22.3115 9.15536C21.8055 9.80271 21.1155 10.7737 20.2414 11.8835C19.8427 12.4075 19.398 12.9932 18.9073 13.6406C18.4473 14.2263 17.9719 14.8582 17.4812 15.5364C17.2358 15.8755 16.9905 16.2145 16.7451 16.5536C16.4691 16.8927 16.2084 17.2318 15.9631 17.5709C15.457 18.2645 14.951 18.9581 14.445 19.6517C13.8929 20.3452 13.4789 21.1313 12.9269 21.7787C12.4208 22.4722 11.9608 23.2121 11.4547 23.8594C10.9947 24.553 10.5807 25.2466 10.1206 25.8477C9.66059 26.4488 9.29259 27.0962 8.87856 27.651C8.51053 28.2059 8.09649 28.7145 7.77446 29.2232C7.45244 29.6855 7.1304 30.1017 6.90039 30.4254C6.67037 30.7953 6.44037 31.0265 6.25636 31.2114C6.10301 31.3964 6.02634 31.4889 6.02634 31.4889C6.02634 31.4889 6.01099 31.381 5.98032 31.1652C5.98032 30.934 5.93433 30.5641 5.93433 30.1479C5.93433 29.7318 5.93433 29.1769 5.93433 28.5758C5.93433 27.9747 6.07234 27.3274 6.16434 26.5875C6.30235 25.8477 6.44035 25.0616 6.67037 24.2293C6.94639 23.4433 7.17642 22.5647 7.54445 21.7324C7.72846 21.3163 7.95847 20.9001 8.14249 20.484C8.3265 20.0216 8.55653 19.6054 8.78655 19.1893C9.29258 18.357 9.79862 17.4784 10.3967 16.6924C10.9947 15.9063 11.5468 15.1202 12.2368 14.4266C12.8809 13.733 13.5709 13.0857 14.2609 12.4383C14.951 11.8372 15.6871 11.3286 16.3771 10.82C17.0672 10.4038 17.7572 9.94143 18.4012 9.61775C19.0453 9.29408 19.6893 9.01665 20.2414 8.78545C20.7934 8.6005 21.3455 8.46178 21.7595 8.32306C22.5876 8.09187 23.0936 8.04562 23.0936 8.04562Z" fill="#FFFDFF"/>
<path d="M26.4981 30.7491C26.4981 32.3212 25.164 33.6159 23.5999 33.6159C21.9898 33.6159 20.7017 32.3212 20.7017 30.7491V24.6455C20.7017 23.0271 21.9898 21.7324 23.5999 21.7324C25.164 21.7324 26.4981 23.0271 26.4981 24.6455V30.7491Z" fill="#5A6B38"/>
<path d="M59.1146 30.749C59.1146 32.3211 57.7805 33.6158 56.2164 33.6158C54.6062 33.6158 53.3181 32.3211 53.3181 30.749V24.6454C53.3181 23.027 54.6062 21.7323 56.2164 21.7323C57.7805 21.7323 59.1146 23.027 59.1146 24.6454V30.749Z" fill="#5A6B38"/>
<path d="M24.1061 42.6324C26.8663 49.0597 32.9847 53.0363 39.8852 53.175C46.7398 53.3599 53.0422 48.8285 55.7104 42.6324C56.4925 40.8291 53.8243 39.2107 52.9962 41.0603C50.696 46.4703 45.8197 49.9382 39.8852 50.0307C34.0428 50.1694 29.0284 46.2853 26.7743 41.0603C25.9922 39.2107 23.278 40.8291 24.1061 42.6324Z" fill="#5A6B38"/>
</svg>
