<svg width="80" height="75" viewBox="0 0 80 75" fill="none" xmlns="http://www.w3.org/2000/svg">
<path d="M80 37.5C80 58.2152 65.969 74.9538 40.023 75C13.571 75 0 58.2152 0 37.5C0 16.7848 17.8954 0 40.023 0C62.1047 0 80 16.7848 80 37.5Z" fill="#FFCE5C"/>
<path d="M60.2647 5.1788C68.2693 12.0222 73.2837 21.8712 73.2837 32.8299C73.2837 53.545 59.2526 70.3299 33.2606 70.3299C24.704 70.3299 17.4815 68.5728 11.593 65.4747C18.2635 71.3934 27.7403 75 40.0232 75C65.9692 74.9538 80.0002 58.2152 80.0002 37.5C80.0002 23.7207 72.0876 11.6985 60.2647 5.1788Z" fill="#E9BD56"/>
<path opacity="0.3" d="M23.0936 8.04562C23.0936 8.04562 23.0323 8.13811 22.9096 8.32306C22.7256 8.50802 22.5416 8.83169 22.3116 9.15537C21.8056 9.80271 21.1155 10.7275 20.2874 11.8835C19.8581 12.4075 19.4134 12.9778 18.9533 13.5943C18.4933 14.2109 18.0026 14.8582 17.4812 15.5364C17.2359 15.8755 16.9905 16.1991 16.7451 16.5074C16.4998 16.8465 16.2391 17.201 15.9631 17.5709C15.4571 18.2645 14.951 18.9581 14.445 19.6517C13.8929 20.3453 13.4789 21.0851 12.9269 21.7787C12.4208 22.4723 11.9608 23.1658 11.5008 23.8594C10.9948 24.5068 10.5807 25.2004 10.1207 25.8477C9.66065 26.4488 9.29259 27.0962 8.87856 27.6511C8.51053 28.2059 8.09649 28.7146 7.77446 29.1769C7.45244 29.6856 7.17646 30.1017 6.90044 30.4254C6.67043 30.7953 6.44039 31.0265 6.30238 31.2115C6.14903 31.3964 6.05704 31.4889 6.02637 31.4889C6.02637 31.4889 6.02637 31.3656 6.02637 31.119C5.98036 30.8878 5.93433 30.5641 5.93433 30.148C5.93433 29.6856 5.93433 29.1769 5.93433 28.5758C5.93433 27.9747 6.07234 27.2811 6.16434 26.5876C6.30235 25.8477 6.4404 25.0617 6.71642 24.2293C6.94644 23.4433 7.17642 22.5647 7.54445 21.7324C7.72846 21.3163 7.9585 20.9001 8.14252 20.4377C8.32653 20.0216 8.55656 19.5592 8.78658 19.1893C9.29261 18.357 9.79865 17.4784 10.3967 16.6924C10.9947 15.9063 11.5468 15.1202 12.2368 14.4266C12.8809 13.6868 13.5709 13.0395 14.261 12.4383C14.9511 11.8372 15.6871 11.3286 16.3771 10.82C17.1132 10.3576 17.7573 9.94143 18.4473 9.61776C19.0914 9.29408 19.6894 9.01665 20.2415 8.78545C20.8395 8.55426 21.3455 8.41554 21.7595 8.32306C22.5876 8.09187 23.0936 8.04562 23.0936 8.04562Z" fill="#FFFDFF"/>
<path d="M30.2407 29.5832C30.2407 31.7174 28.5266 33.476 26.3703 33.476C24.2567 33.476 22.5 31.7139 22.5 29.5832V26.3927C22.5 24.262 24.2567 22.5 26.3703 22.5C28.5266 22.5 30.2407 24.2586 30.2407 26.3927V29.5832Z" fill="#A37A00" stroke="#A37A00"/>
<path d="M58.487 29.5832C58.487 31.7139 56.7303 33.4759 54.6167 33.4759C52.503 33.4759 50.7463 31.7139 50.7463 29.5832V26.3927C50.7463 24.262 52.503 22.4999 54.6167 22.4999C56.7303 22.4999 58.487 24.262 58.487 26.3927V29.5832Z" fill="#A37A00" stroke="#A37A00"/>
<path fill-rule="evenodd" clip-rule="evenodd" d="M26.9998 50.8052C26.9998 49.7006 27.8312 48.8052 28.8569 48.8052H51.1426C52.1683 48.8052 52.9998 49.7006 52.9998 50.8052C52.9998 51.9098 52.1683 52.8052 51.1426 52.8052H28.8569C27.8312 52.8052 26.9998 51.9098 26.9998 50.8052Z" fill="#A37A00"/>
</svg>
