<svg width="28" height="28" viewBox="0 0 28 28" fill="none" xmlns="http://www.w3.org/2000/svg">
<circle cx="14" cy="14" r="14" fill="#EB5757"/>
<path d="M12.1138 8.66659C12.3883 7.88979 13.1291 7.33325 13.9999 7.33325C14.8708 7.33325 15.6116 7.88979 15.8861 8.66659" stroke="white" stroke-linecap="round"/>
<path d="M19.6669 10H8.3335" stroke="white" stroke-linecap="round"/>
<path d="M18.5554 11.6667L18.2488 16.2661C18.1308 18.0361 18.0719 18.9211 17.4952 19.4605C16.9185 20.0001 16.0315 20.0001 14.2576 20.0001H13.7421C11.9682 20.0001 11.0813 20.0001 10.5046 19.4605C9.92796 18.9211 9.86896 18.0361 9.75096 16.2661L9.44434 11.6667" stroke="white" stroke-linecap="round"/>
<path d="M12.3335 13.3333L12.6668 16.6666" stroke="white" stroke-linecap="round"/>
<path d="M15.6668 13.3333L15.3335 16.6666" stroke="white" stroke-linecap="round"/>
</svg>
