<svg width="48" height="48" viewBox="0 0 48 48" fill="none" xmlns="http://www.w3.org/2000/svg">
<rect width="48" height="48" rx="12" fill="#F3F5F9"/>
<path d="M21.1707 16C21.5825 14.8348 22.6937 14 23.9999 14C25.3062 14 26.4174 14.8348 26.8292 16" stroke="#4E9CFE" stroke-width="1.5" stroke-linecap="round"/>
<path d="M32.5001 18H15.5" stroke="#4E9CFE" stroke-width="1.5" stroke-linecap="round"/>
<path d="M30.8334 20.5L30.3735 27.3991C30.1965 30.054 30.108 31.3815 29.243 32.1907C28.3779 33 27.0475 33 24.3867 33H23.6134C20.9526 33 19.6222 33 18.7572 32.1907C17.8922 31.3815 17.8037 30.054 17.6267 27.3991L17.1667 20.5" stroke="#4E9CFE" stroke-width="1.5" stroke-linecap="round"/>
<path d="M21.5 23L22 28" stroke="#4E9CFE" stroke-width="1.5" stroke-linecap="round"/>
<path d="M26.5 23L26 28" stroke="#4E9CFE" stroke-width="1.5" stroke-linecap="round"/>
</svg>
