<svg width="64" height="58" viewBox="0 0 64 58" fill="none" xmlns="http://www.w3.org/2000/svg">
<path d="M8.02232 56.7855C13.4428 57.1025 18.3728 54.4229 22.5876 51.2852C26.2514 48.5131 29.6129 45.3419 32.6563 41.9358C38.6304 35.1808 43.2967 27.2488 46.343 18.7521C48.0488 13.9714 49.2785 8.9794 49.8919 3.91838C50.0635 2.64028 48.0505 2.41746 47.9184 3.68962C46.8396 12.3755 44.0303 20.8366 39.763 28.4663C35.5293 36.0506 29.8889 42.8766 23.1145 48.3379C18.9353 51.7126 13.875 55.1389 8.25108 54.8121C7.7197 54.7707 7.20814 55.1303 7.12726 55.6676C7.08588 56.199 7.49094 56.7441 8.02232 56.7855Z" fill="#4E9CFE"/>
<path d="M33.1434 15.3215C37.0916 12.0218 41.0851 8.75575 45.0332 5.45611C45.4994 5.06292 45.9319 4.71517 46.398 4.32198C46.8305 3.97423 47.2453 3.50798 47.7746 3.26688C48.4501 2.92303 48.9244 3.65974 49.2109 4.22266C50.4242 6.38348 51.4914 8.64705 52.6375 10.8987C53.9556 13.4882 55.3132 16.0717 56.6312 18.6612C57.2043 19.787 59.063 18.9827 58.4504 17.8628C57.1896 15.3859 55.9289 12.909 54.6286 10.4381C53.4251 8.07383 52.2947 5.65816 50.9787 3.35118C50.4353 2.42286 49.7279 1.47878 48.6414 1.238C47.306 0.953803 46.2276 1.84294 45.2954 2.62932C43.2117 4.3562 41.1281 6.08308 39.0444 7.80996C36.6348 9.78778 34.2647 11.7596 31.8611 13.777C30.8894 14.5693 32.1322 16.1197 33.1434 15.3215Z" fill="#4E9CFE"/>
</svg>
