<svg width="28" height="28" viewBox="0 0 28 28" fill="none" xmlns="http://www.w3.org/2000/svg">
<circle cx="14" cy="14" r="14" fill="#4E9CFE"/>
<g clip-path="url(#clip0_1301_5878)">
<path d="M15.3826 8.59028C15.8794 8.05203 16.1278 7.78291 16.3918 7.62593C17.0286 7.24715 17.8129 7.23537 18.4604 7.59486C18.7288 7.74385 18.9848 8.00539 19.4968 8.52849C20.0089 9.05158 20.265 9.31313 20.4108 9.58727C20.7627 10.2487 20.7512 11.0498 20.3804 11.7004C20.2267 11.9701 19.9632 12.2238 19.4364 12.7313L13.1672 18.7695C12.1688 19.7312 11.6695 20.2121 11.0455 20.4558C10.4216 20.6995 9.73563 20.6816 8.36374 20.6457L8.17708 20.6408C7.75944 20.6299 7.55061 20.6244 7.42922 20.4866C7.30783 20.3489 7.3244 20.1362 7.35755 19.7108L7.37555 19.4798C7.46884 18.2823 7.51548 17.6836 7.7493 17.1454C7.98312 16.6072 8.38646 16.1703 9.19312 15.2963L15.3826 8.59028Z" stroke="white" stroke-linejoin="round"/>
<path d="M14.6665 8.66669L19.3332 13.3334" stroke="white" stroke-linejoin="round"/>
<path d="M15.3335 20.6667H20.6668" stroke="white" stroke-linecap="round" stroke-linejoin="round"/>
</g>
<defs>
<clipPath id="clip0_1301_5878">
<rect width="16" height="16" fill="white" transform="translate(6 6)"/>
</clipPath>
</defs>
</svg>
