<svg width="88" height="88" viewBox="0 0 88 88" fill="none" xmlns="http://www.w3.org/2000/svg">
<g filter="url(#filter0_d_3200_11714)">
<path d="M78 40C78 21.2223 62.7777 6 44 6C25.2223 6 10 21.2223 10 40C10 58.7777 25.2223 74 44 74C62.7777 74 78 58.7777 78 40Z" fill="#F9FBFB"/>
</g>
<path d="M56.5835 32.0415C56.5835 34.0435 54.9606 35.6665 52.9585 35.6665C50.9564 35.6665 49.3335 34.0435 49.3335 32.0415C49.3335 30.0395 50.9564 28.4165 52.9585 28.4165C54.9606 28.4165 56.5835 30.0395 56.5835 32.0415Z" fill="#4E9CFE" fill-opacity="0.5"/>
<path fill-rule="evenodd" clip-rule="evenodd" d="M44.4998 28.4165C46.1901 28.4165 47.6294 28.4165 48.8643 28.4627C48.0277 29.419 47.5207 30.6711 47.5207 32.0415C47.5207 35.0446 49.9551 37.479 52.9582 37.479C54.3287 37.479 55.5806 36.972 56.5369 36.1354C56.5832 37.3703 56.5832 38.8096 56.5832 40.4998C56.5832 46.1959 56.5832 49.0441 54.8136 50.8136C53.0441 52.5832 50.1959 52.5832 44.4998 52.5832C38.8037 52.5832 35.9556 52.5832 34.1861 50.8136C32.4165 49.0441 32.4165 46.1959 32.4165 40.4998C32.4165 34.8037 32.4165 31.9556 34.1861 30.1861C35.9556 28.4165 38.8037 28.4165 44.4998 28.4165ZM47.5207 38.9894C47.0202 38.9894 46.6144 38.5837 46.6144 38.0832C46.6144 37.5827 47.0202 37.1769 47.5207 37.1769H50.5415C51.042 37.1769 51.4478 37.5827 51.4478 38.0832V41.104C51.4478 41.6045 51.042 42.0103 50.5415 42.0103C50.041 42.0103 49.6353 41.6045 49.6353 41.104V40.2711L47.2034 42.7029C46.3776 43.5286 45.0388 43.5286 44.213 42.7029L42.2968 40.7867C42.1788 40.6688 41.9875 40.6688 41.8696 40.7867L39.099 43.5573C38.7451 43.9112 38.1713 43.9112 37.8174 43.5573C37.4634 43.2034 37.4634 42.6296 37.8174 42.2757L40.5879 39.5051C41.4137 38.6794 42.7526 38.6794 43.5784 39.5051L45.4945 41.4213C45.6126 41.5392 45.8038 41.5392 45.9218 41.4213L48.3536 38.9894H47.5207Z" fill="#4E9CFE"/>
<defs>
<filter id="filter0_d_3200_11714" x="0" y="0" width="88" height="88" filterUnits="userSpaceOnUse" color-interpolation-filters="sRGB">
<feFlood flood-opacity="0" result="BackgroundImageFix"/>
<feColorMatrix in="SourceAlpha" type="matrix" values="0 0 0 0 0 0 0 0 0 0 0 0 0 0 0 0 0 0 127 0" result="hardAlpha"/>
<feOffset dy="4"/>
<feGaussianBlur stdDeviation="5"/>
<feComposite in2="hardAlpha" operator="out"/>
<feColorMatrix type="matrix" values="0 0 0 0 0 0 0 0 0 0 0 0 0 0 0 0 0 0 0.02 0"/>
<feBlend mode="normal" in2="BackgroundImageFix" result="effect1_dropShadow_3200_11714"/>
<feBlend mode="normal" in="SourceGraphic" in2="effect1_dropShadow_3200_11714" result="shape"/>
</filter>
</defs>
</svg>
