<svg width="16" height="16" viewBox="0 0 16 16" fill="none" xmlns="http://www.w3.org/2000/svg">
<path d="M3.54112 7.17433C5.48669 3.72477 6.45948 2 7.99998 2C9.54045 2 10.5132 3.72477 12.4588 7.17433L12.7012 7.6042C14.318 10.4707 15.1264 11.904 14.3958 12.952C13.6652 14 11.8576 14 8.24245 14H7.75751C4.14235 14 2.33476 14 1.60415 12.952C0.87354 11.904 1.68192 10.4707 3.29868 7.6042L3.54112 7.17433Z" stroke="#D24445"/>
<path d="M8 5.33334V8.66668" stroke="#D24445" stroke-linecap="round"/>
<path d="M7.33331 10.6667C7.33331 10.8435 7.40355 11.013 7.52858 11.1381C7.6536 11.2631 7.82317 11.3333 7.99998 11.3333C8.17679 11.3333 8.34636 11.2631 8.47138 11.1381C8.59641 11.013 8.66665 10.8435 8.66665 10.6667C8.66665 10.4899 8.59641 10.3203 8.47138 10.1953C8.34636 10.0702 8.17679 10 7.99998 10C7.82317 10 7.6536 10.0702 7.52858 10.1953C7.40355 10.3203 7.33331 10.4899 7.33331 10.6667Z" fill="#D24445"/>
</svg>
