<svg width="18" height="18" viewBox="0 0 18 18" fill="none" xmlns="http://www.w3.org/2000/svg">
<path d="M3.98378 8.07113C6.17255 4.19037 7.26694 2.25 9 2.25C10.733 2.25 11.8274 4.19037 14.0162 8.07113L14.2889 8.55472C16.1078 11.7796 17.0173 13.392 16.1953 14.571C15.3734 15.75 13.3398 15.75 9.27277 15.75H8.72723C4.66017 15.75 2.62663 15.75 1.80469 14.571C0.982755 13.392 1.89218 11.7796 3.71104 8.55472L3.98378 8.07113Z" stroke="#EB5757" stroke-width="1.125"/>
<path d="M9 6V9.75" stroke="#EB5757" stroke-width="1.125" stroke-linecap="round"/>
<path d="M8.25 12C8.25 12.1989 8.32902 12.3897 8.46967 12.5303C8.61032 12.671 8.80109 12.75 9 12.75C9.19891 12.75 9.38968 12.671 9.53033 12.5303C9.67098 12.3897 9.75 12.1989 9.75 12C9.75 11.8011 9.67098 11.6103 9.53033 11.4697C9.38968 11.329 9.19891 11.25 9 11.25C8.80109 11.25 8.61032 11.329 8.46967 11.4697C8.32902 11.6103 8.25 11.8011 8.25 12Z" fill="#EB5757"/>
</svg>
