<svg width="24" height="24" viewBox="0 0 24 24" fill="none" xmlns="http://www.w3.org/2000/svg">
<path d="M22.6797 10.7079C22.9639 11.0623 23.1213 11.5227 23.1213 12.0001C23.1213 12.4775 22.9639 12.9379 22.6797 13.2923C20.8797 15.4716 16.7825 19.7144 11.9996 19.7144C7.21674 19.7144 3.1196 15.4716 1.3196 13.2923C1.0353 12.9379 0.87793 12.4775 0.87793 12.0001C0.87793 11.5227 1.0353 11.0623 1.3196 10.7079C3.1196 8.52861 7.21674 4.28571 11.9996 4.28571C16.7825 4.28571 20.8797 8.52861 22.6797 10.7079Z" stroke="black" stroke-width="1.5" stroke-linecap="round" stroke-linejoin="round"/>
<path d="M11.9999 15.4286C13.8934 15.4286 15.4284 13.8935 15.4284 12C15.4284 10.1064 13.8934 8.57141 11.9999 8.57141C10.1063 8.57141 8.57129 10.1064 8.57129 12C8.57129 13.8935 10.1063 15.4286 11.9999 15.4286Z" stroke="black" stroke-width="1.5" stroke-linecap="round" stroke-linejoin="round"/>
</svg>
