<svg width="25" height="24" viewBox="0 0 25 24" fill="none" xmlns="http://www.w3.org/2000/svg">
<path d="M22.5 5C22.5 6.65685 21.1569 8 19.5 8C17.8431 8 16.5 6.65685 16.5 5C16.5 3.34315 17.8431 2 19.5 2C21.1569 2 22.5 3.34315 22.5 5Z" fill="#4E9CFE"/>
<path fill-rule="evenodd" clip-rule="evenodd" d="M12.5 2C13.8988 2 15.09 2 16.112 2.03826C15.4196 2.82967 15 3.86584 15 5C15 7.48528 17.0147 9.5 19.5 9.5C20.6342 9.5 21.6703 9.08042 22.4617 8.38802C22.5 9.41 22.5 10.6012 22.5 12C22.5 16.714 22.5 19.0711 21.0355 20.5355C19.5711 22 17.214 22 12.5 22C7.78595 22 5.42893 22 3.96447 20.5355C2.5 19.0711 2.5 16.714 2.5 12C2.5 7.28595 2.5 4.92893 3.96447 3.46447C5.42893 2 7.78595 2 12.5 2ZM15 10.75C14.5858 10.75 14.25 10.4142 14.25 10C14.25 9.58579 14.5858 9.25 15 9.25H17.5C17.9142 9.25 18.25 9.58579 18.25 10V12.5C18.25 12.9142 17.9142 13.25 17.5 13.25C17.0858 13.25 16.75 12.9142 16.75 12.5V11.8107L14.7374 13.8232C14.054 14.5066 12.946 14.5066 12.2626 13.8232L10.6768 12.2374C10.5791 12.1398 10.4209 12.1398 10.3232 12.2374L8.03033 14.5303C7.73744 14.8232 7.26256 14.8232 6.96967 14.5303C6.67678 14.2374 6.67678 13.7626 6.96967 13.4697L9.26256 11.1768C9.94598 10.4934 11.054 10.4934 11.7374 11.1768L13.3232 12.7626C13.4209 12.8602 13.5791 12.8602 13.6768 12.7626L15.6893 10.75H15Z" fill="#4E9CFE"/>
</svg>
