<svg width="25" height="24" viewBox="0 0 25 24" fill="none" xmlns="http://www.w3.org/2000/svg">
<path d="M22.5 10.5V12C22.5 16.714 22.5 19.0711 21.0355 20.5355C19.5711 22 17.214 22 12.5 22C7.78595 22 5.42893 22 3.96447 20.5355C2.5 19.0711 2.5 16.714 2.5 12C2.5 7.28595 2.5 4.92893 3.96447 3.46447C5.42893 2 7.78595 2 12.5 2H14" stroke="#8E9FC7" stroke-width="1.5" stroke-linecap="round"/>
<path d="M16.5 5C16.5 5.79565 16.8161 6.55871 17.3787 7.12132C17.9413 7.68393 18.7044 8 19.5 8C20.2956 8 21.0587 7.68393 21.6213 7.12132C22.1839 6.55871 22.5 5.79565 22.5 5C22.5 4.20435 22.1839 3.44129 21.6213 2.87868C21.0587 2.31607 20.2956 2 19.5 2C18.7044 2 17.9413 2.31607 17.3787 2.87868C16.8161 3.44129 16.5 4.20435 16.5 5Z" stroke="#8E9FC7" stroke-width="1.5"/>
<path d="M7.5 14L9.79289 11.7071C10.1834 11.3166 10.8166 11.3166 11.2071 11.7071L12.7929 13.2929C13.1834 13.6834 13.8166 13.6834 14.2071 13.2929L17.5 10M17.5 10V12.5M17.5 10H15" stroke="#8E9FC7" stroke-width="1.5" stroke-linecap="round" stroke-linejoin="round"/>
</svg>
