<svg width="23" height="22" viewBox="0 0 23 22" fill="none" xmlns="http://www.w3.org/2000/svg">
<path d="M22.122 8.71162H21.2493V8.66667H11.4993V13H17.6218C16.7286 15.5225 14.3285 17.3333 11.4993 17.3333C7.90972 17.3333 4.99935 14.423 4.99935 10.8333C4.99935 7.24371 7.90972 4.33333 11.4993 4.33333C13.1563 4.33333 14.6638 4.95842 15.8116 5.97946L18.8758 2.91525C16.9409 1.11204 14.3528 0 11.4993 0C5.51664 0 0.666016 4.85062 0.666016 10.8333C0.666016 16.816 5.51664 21.6667 11.4993 21.6667C17.4821 21.6667 22.3327 16.816 22.3327 10.8333C22.3327 10.107 22.2579 9.39792 22.122 8.71162Z" fill="#FFC107"/>
<path d="M1.91504 5.79096L5.47433 8.40125C6.43741 6.01683 8.76983 4.33333 11.4993 4.33333C13.1562 4.33333 14.6637 4.95842 15.8115 5.97946L18.8757 2.91525C16.9409 1.11204 14.3528 0 11.4993 0C7.33821 0 3.72962 2.34921 1.91504 5.79096Z" fill="#FF3D00"/>
<path d="M11.4998 21.6669C14.2981 21.6669 16.8407 20.5961 18.7631 18.8546L15.4101 16.0174C14.3225 16.8412 12.9705 17.3336 11.4998 17.3336C8.68209 17.3336 6.28955 15.5369 5.38822 13.0295L1.85547 15.7514C3.64839 19.2598 7.28947 21.6669 11.4998 21.6669Z" fill="#4CAF50"/>
<path d="M22.1216 8.71303H21.249V8.66807H11.499V13.0014H17.6215C17.1925 14.2131 16.413 15.258 15.4077 16.019C15.4082 16.0185 15.4088 16.0185 15.4093 16.0179L18.7622 18.8552C18.525 19.0708 22.3324 16.2514 22.3324 10.8347C22.3324 10.1084 22.2576 9.39932 22.1216 8.71303Z" fill="#1976D2"/>
</svg>
