<svg width="25" height="24" viewBox="0 0 25 24" fill="none" xmlns="http://www.w3.org/2000/svg">
<g clip-path="url(#clip0_2342_1118)">
<path fill-rule="evenodd" clip-rule="evenodd" d="M1.35059 7.0875C0.73999 8.203 0.73999 9.5486 0.73999 12.2398V14.0286C0.73999 18.6159 0.73999 20.9097 2.11779 22.3348C3.49549 23.76 5.71299 23.76 10.148 23.76H14.852C19.2869 23.76 21.5045 23.76 22.8822 22.3348C24.26 20.9097 24.26 18.6159 24.26 14.0286V12.2398C24.26 9.5486 24.26 8.203 23.6494 7.0876C23.0388 5.9721 21.9234 5.2798 19.6924 3.8952L17.3404 2.4355C14.9821 0.971802 13.8029 0.240002 12.5 0.240002C11.1971 0.240002 10.0179 0.971802 7.65959 2.4354L5.30759 3.8952C3.07669 5.2798 1.96119 5.9721 1.35059 7.0875ZM8.97199 18.174C8.48489 18.174 8.08999 18.5689 8.08999 19.056C8.08999 19.5431 8.48489 19.938 8.97199 19.938H16.028C16.5151 19.938 16.91 19.5431 16.91 19.056C16.91 18.5689 16.5151 18.174 16.028 18.174H8.97199Z" fill="#4E9CFE"/>
</g>
<defs>
<clipPath id="clip0_2342_1118">
<rect width="24" height="24" fill="white" transform="translate(0.5)"/>
</clipPath>
</defs>
</svg>
