<svg width="25" height="24" viewBox="0 0 25 24" fill="none" xmlns="http://www.w3.org/2000/svg">
<g clip-path="url(#clip0_2263_522)">
<path d="M1.56055 12.2231C1.56055 9.71965 1.56055 8.46795 2.12845 7.43035C2.69645 6.39265 3.73415 5.74865 5.80945 4.46065L7.99735 3.10275C10.1911 1.74125 11.288 1.06055 12.5 1.06055C13.712 1.06055 14.8089 1.74125 17.0027 3.10275L19.1906 4.46065C21.266 5.74865 22.3036 6.39265 22.8715 7.43035C23.4395 8.46795 23.4395 9.71965 23.4395 12.2231V13.8871C23.4395 18.1544 23.4395 20.2881 22.1579 21.6138C20.8763 22.9395 18.8134 22.9395 14.6879 22.9395H10.3121C6.18655 22.9395 4.12385 22.9395 2.84215 21.6138C1.56055 20.2881 1.56055 18.1544 1.56055 13.8871V12.2231Z" stroke="#8E9FC7" stroke-width="1.5"/>
<path d="M15.7818 18.5637H9.21802" stroke="#8E9FC7" stroke-width="1.5" stroke-linecap="round"/>
</g>
<defs>
<clipPath id="clip0_2263_522">
<rect width="24" height="24" fill="white" transform="translate(0.5)"/>
</clipPath>
</defs>
</svg>
