<svg width="25" height="24" viewBox="0 0 25 24" fill="none" xmlns="http://www.w3.org/2000/svg">
<path fill-rule="evenodd" clip-rule="evenodd" d="M1.75 21C1.75 20.5858 2.08579 20.25 2.5 20.25H22.5C22.9142 20.25 23.25 20.5858 23.25 21C23.25 21.4142 22.9142 21.75 22.5 21.75H2.5C2.08579 21.75 1.75 21.4142 1.75 21Z" fill="#4E9CFE"/>
<path d="M8 17C7.06538 17 6.59808 17 6.25 16.799C6.02197 16.6674 5.83261 16.478 5.70096 16.25C5.5 15.9019 5.5 15.4346 5.5 14.5V5.5C5.5 4.56538 5.5 4.09808 5.70096 3.75C5.83261 3.52197 6.02197 3.33261 6.25 3.20096C6.59808 3 7.06538 3 8 3C8.93462 3 9.40192 3 9.75 3.20096C9.97803 3.33261 10.1674 3.52197 10.299 3.75C10.5 4.09808 10.5 4.56538 10.5 5.5V14.5C10.5 15.4346 10.5 15.9019 10.299 16.25C10.1674 16.478 9.97803 16.6674 9.75 16.799C9.40192 17 8.93462 17 8 17Z" fill="#4E9CFE"/>
<path d="M17 17C16.0654 17 15.5981 17 15.25 16.799C15.022 16.6674 14.8326 16.478 14.701 16.25C14.5 15.9019 14.5 15.4346 14.5 14.5V8.5C14.5 7.56538 14.5 7.09808 14.701 6.75C14.8326 6.52197 15.022 6.33261 15.25 6.20096C15.5981 6 16.0654 6 17 6C17.9346 6 18.4019 6 18.75 6.20096C18.978 6.33261 19.1674 6.52197 19.299 6.75C19.5 7.09808 19.5 7.56538 19.5 8.5V14.5C19.5 15.4346 19.5 15.9019 19.299 16.25C19.1674 16.478 18.978 16.6674 18.75 16.799C18.4019 17 17.9346 17 17 17Z" fill="#4E9CFE"/>
</svg>
