<svg width="60" height="60" viewBox="0 0 60 60" fill="none" xmlns="http://www.w3.org/2000/svg">
<g filter="url(#filter0_d_1337_8069)">
<path d="M50 26C50 14.9543 41.0457 6 30 6C18.9543 6 10 14.9543 10 26C10 37.0457 18.9543 46 30 46C41.0457 46 50 37.0457 50 26Z" fill="#F9FBFB"/>
</g>
<path d="M36 22C36 20.4087 35.3679 18.8826 34.2426 17.7574C33.1174 16.6321 31.5913 16 30 16C28.4087 16 26.8826 16.6321 25.7574 17.7574C24.6321 18.8826 24 20.4087 24 22C24 29 21 31 21 31H39C39 31 36 29 36 22Z" stroke="black" stroke-width="1.5" stroke-linecap="round" stroke-linejoin="round"/>
<path d="M31.73 35C31.5542 35.3031 31.3019 35.5547 30.9982 35.7295C30.6946 35.9044 30.3504 35.9965 30 35.9965C29.6496 35.9965 29.3054 35.9044 29.0018 35.7295C28.6982 35.5547 28.4458 35.3031 28.27 35" stroke="black" stroke-width="1.5" stroke-linecap="round" stroke-linejoin="round"/>
<defs>
<filter id="filter0_d_1337_8069" x="0" y="0" width="60" height="60" filterUnits="userSpaceOnUse" color-interpolation-filters="sRGB">
<feFlood flood-opacity="0" result="BackgroundImageFix"/>
<feColorMatrix in="SourceAlpha" type="matrix" values="0 0 0 0 0 0 0 0 0 0 0 0 0 0 0 0 0 0 127 0" result="hardAlpha"/>
<feOffset dy="4"/>
<feGaussianBlur stdDeviation="5"/>
<feComposite in2="hardAlpha" operator="out"/>
<feColorMatrix type="matrix" values="0 0 0 0 0 0 0 0 0 0 0 0 0 0 0 0 0 0 0.02 0"/>
<feBlend mode="normal" in2="BackgroundImageFix" result="effect1_dropShadow_1337_8069"/>
<feBlend mode="normal" in="SourceGraphic" in2="effect1_dropShadow_1337_8069" result="shape"/>
</filter>
</defs>
</svg>
