<svg width="375" height="812" viewBox="0 0 375 812" fill="none" xmlns="http://www.w3.org/2000/svg">
<g clip-path="url(#clip0_3073_5438)">
<rect width="375" height="812" fill="white"/>
<rect x="121" y="799" width="134" height="5" rx="2.5" fill="#E6E6E6" fill-opacity="0.36"/>
<g clip-path="url(#clip1_3073_5438)">
<rect x="-527" y="-611" width="1176" height="1065" rx="532.5" fill="#4E9CFE" fill-opacity="0.5"/>
<g opacity="0.48">
<path d="M324.375 394.617C224.918 445.704 -53.8501 544.842 -167.858 536.735C-182.909 535.648 -201.06 531.798 -205.26 518.664C-208.71 507.84 -200.26 497.062 -191.509 489.091C-158.407 459.019 -113.954 441.311 -69.0011 429.173C-24.0481 417.036 22.405 409.835 67.1079 396.972C-2.69668 392.172 -71.5013 375.777 -134.905 348.785C-152.707 341.222 -170.358 332.617 -184.259 320.026C-196.46 308.976 -205.46 290.996 -195.659 278.088C-189.359 269.846 -177.608 266.811 -166.808 264.728C-54.2001 243.08 66.7079 258.931 167.965 308.568C95.2098 275.416 28.8054 230.807 -27.3983 177.411C-46.5996 159.159 -65.3009 138.643 -70.5512 113.915C-72.2013 106.126 -72.4013 97.7924 -68.8011 90.5914C-60.8006 74.5591 -37.799 69.9848 -18.4977 71.8417C8.95407 74.5138 34.4558 85.8813 58.0073 98.9246C131.862 139.821 192.016 198.198 244.52 260.426C214.618 222.564 184.716 184.702 154.814 146.795C138.213 125.781 121.312 104.178 114.061 79.1785C106.811 54.1789 111.161 24.741 132.212 7.34996C135.763 4.40616 140.013 1.77939 144.813 1.41707C148.513 1.14534 152.214 2.23228 155.664 3.45509C216.718 24.4693 258.571 77.8652 277.672 134.477C296.773 191.088 317.425 302.862 316.974 362.055L324.375 394.617Z" fill="#4E9CFE"/>
<path d="M272.203 238.575C333.935 190.363 416.208 164.212 497.729 166.938C506.691 167.23 515.868 167.911 524.006 171.35C532.144 174.789 539.098 181.505 539.995 189.584C540.783 196.625 536.947 203.373 532.502 209.181C520.457 224.819 503.178 236.499 485.361 246.622C422.912 282.019 349.529 301.453 275.823 302.037C359.316 274.946 452.415 272.837 537.306 296.1C559.962 302.297 583.479 311.284 596.385 329.226C599.002 332.827 601.153 336.915 601.045 341.23C600.794 352.943 585.559 358.945 572.832 361.151C505.938 372.766 437.108 359.951 370.465 347.168C349.099 343.08 327.303 338.829 308.589 328.642C350.676 331.302 392.548 336.428 433.917 343.956C486.114 353.494 540.425 368.516 575.879 404.465C587.996 416.761 597.46 435.677 586.777 449.011C581.759 455.273 573.406 458.582 565.232 460.821C531.462 469.938 494.897 465.136 461.234 455.662C427.572 446.189 395.667 432.237 362.04 422.601C327.231 412.641 289.482 406.801 261.054 386.101C321.495 388.729 374.229 423.25 418.825 460.27C435.674 474.286 452.165 489.048 463.851 506.86C468.117 513.349 471.774 520.681 470.663 528.144C468.404 543.036 448.938 550.206 432.34 550.822C410.687 551.634 388.784 546.183 370.608 535.476C356.591 527.203 344.976 516.074 333.504 505.075C285.825 459.296 238.146 413.517 190.503 367.705L272.203 238.575Z" fill="#4E9CFE"/>
<path d="M348.32 77.2714C355.025 72.6117 356.287 63.9151 351.139 57.8469C345.99 51.7787 336.381 50.6368 329.676 55.2964C322.971 59.956 321.709 68.6527 326.858 74.7209C332.006 80.7891 341.615 81.931 348.32 77.2714Z" fill="#4E9CFE"/>
</g>
<path d="M113.107 93.6782C117.982 93.7106 122.571 89.8497 125.331 84.6911C128.091 79.5324 129.239 73.1732 129.597 66.9438C129.884 72.7514 130.171 78.6888 132.035 83.9773C133.863 89.2982 137.555 93.9378 142.072 94.4569C137.878 95.3004 134.472 99.6156 132.644 104.547C130.816 109.479 130.242 114.994 129.705 120.413C128.557 114.475 127.41 108.408 124.793 103.249C122.212 98.1231 117.91 93.9702 113.142 93.9702L113.107 93.6782Z" fill="white"/>
<path d="M61.8079 142.215C66.6833 142.248 71.272 138.387 74.0324 133.228C76.7927 128.069 77.9399 121.71 78.2984 115.481C78.5852 121.289 78.872 127.226 80.7361 132.514C82.5644 137.835 86.2569 142.475 90.7738 142.994C86.5795 143.838 83.1738 148.153 81.3455 153.084C79.5172 158.016 78.9437 163.531 78.4059 168.95C77.2588 163.012 76.1116 156.945 73.4946 151.786C70.9135 146.66 66.6116 142.507 61.8437 142.507L61.8079 142.215Z" fill="white"/>
<path d="M194.126 107.694C194.376 97.8635 199.861 90.8879 209.792 89.2981C219.722 87.6759 229.795 91.6341 238.112 96.7928C246.429 101.952 253.742 108.44 262.525 112.983C282.888 123.495 311.71 124.403 322.787 143.124C324.472 145.979 325.584 150.099 323.899 153.149C321.354 157.789 317.374 155.874 313.001 157.756C309.201 159.411 308.663 164.505 310.85 167.782C313.037 171.059 316.944 173.038 320.601 174.919C335.55 182.641 349.459 191.985 361.935 202.692C369.104 208.857 376.346 217.162 373.872 225.825C372.618 230.173 364.408 229.589 364.05 234.066C363.153 245.194 386.706 256.453 384.268 267.387C383.121 272.513 377.17 275.887 371.399 276.082C365.627 276.276 360.106 274.005 355.195 271.28C342.576 264.304 325.154 236.597 312.929 229.005C293.857 217.162 299.88 240.068 285.11 240.717C271.129 241.334 263.852 221.769 259.263 212.62C251.842 197.76 244.207 181.733 229.616 171.448C226.963 169.599 223.773 167.879 220.475 168.398C217.822 168.82 215.707 170.604 213.09 171.253C204.88 173.232 199.61 163.564 198.212 155.972C195.309 140.041 193.91 123.884 194.126 107.694Z" fill="#1C0070"/>
<path d="M273.711 190.006H151.609V332.081H273.711V190.006Z" fill="white"/>
<path d="M334.33 443.658C277.115 430.291 220.223 415.367 164.191 398.398C157.882 396.484 151.572 394.602 145.263 392.655C133.684 415.074 121.889 437.332 109.737 459.426C157.308 476.005 206.6 488.497 255.642 501.02C274.606 505.855 293.642 510.624 312.713 515.069C333.434 519.903 358.026 508.807 362.974 489.113C367.885 469.841 356.485 448.849 334.33 443.658Z" fill="#4E9CFE"/>
<path d="M383.3 297.268C366.164 290.033 347.881 286.626 328.917 287.016C312.354 287.373 295.649 289.676 279.338 292.272C256.573 295.906 234.741 301.843 213.304 309.143C194.734 302.784 175.842 297.463 156.196 293.829C126.8 288.443 96.2927 284.323 66.5739 289.709C35.7797 295.289 8.06842 316.119 -0.786278 343.729C-10.1429 372.799 4.62692 405.698 30.1155 424.224C52.8079 440.738 81.9531 449.758 108.84 459.167C109.163 459.264 109.449 459.394 109.772 459.491C121.925 437.397 133.719 415.14 145.298 392.72C135.081 389.573 124.936 386.264 115.006 382.435C107.729 379.645 66.8607 365.142 87.7965 361.314C121.925 355.052 169.102 371.891 199.932 383.376C199.287 383.117 198.642 382.857 197.996 382.598C200.613 383.474 203.338 384.025 206.134 384.35C214.989 385.68 224.202 384.771 232.124 381.397C234.06 380.846 236.032 380.197 237.968 379.515C269.228 368.614 305.328 359.173 339.205 361.379C342.288 361.574 344.869 362.385 346.303 364.526C341.177 371.664 330.136 375.817 321.711 378.899C304.754 385.128 287.583 390.903 270.268 396.354C281.13 419.228 289.59 442.815 298.338 466.207C357.237 449.498 425.35 425.425 429.939 365.662C432.126 337.175 411.441 309.175 383.3 297.268Z" fill="#1C0070"/>
<path d="M298.303 466.207C289.556 442.782 281.131 419.195 270.233 396.354C218.037 412.771 164.514 426.138 111.35 439.084C105.005 440.641 98.6958 442.166 92.3147 443.658C72.5261 448.298 58.1148 468.154 62.6317 486.42C62.345 486.55 62.0582 486.68 61.7714 486.81L63.8506 490.249C65.4997 494.531 67.9015 498.457 70.8411 501.864L105.005 558.512C111.924 569.998 130.028 570.711 137.735 559.648C148.167 544.691 149.852 525.386 140.532 508.677C181.005 498.814 221.263 488.107 261.163 476.557C272.599 473.248 285.218 469.906 298.303 466.207Z" fill="#4E9CFE"/>
<path d="M57.0736 303.206C55.317 305.25 53.4529 307.196 57.0736 303.206Z" fill="#4E9CFE"/>
<path d="M137.95 175.6C129.704 182.446 122.642 190.07 116.404 198.246C105.865 212.1 97.6911 227.511 90.1629 243.312C78.7629 267.289 66.9327 301.42 41.6951 316.669C17.1744 331.496 -18.4237 318.032 -35.9897 299.766C-47.2462 288.053 -71.0141 288.767 -82.2707 299.993C-94.9253 312.614 -94.065 329.355 -82.0197 341.879C-58.216 366.666 -20.001 380.877 15.9196 381.396C45.4233 381.818 73.2063 371.728 94.6798 353.591C125.546 327.506 137.77 289.448 155.265 255.901C159.351 248.049 163.761 240.295 168.959 232.962C165.553 210.77 157.129 189.843 137.95 175.6Z" fill="#4E9CFE"/>
<path d="M498.052 294.023C481.203 286.074 465.394 291.85 453.994 303.984C441.411 317.416 427.358 327.279 406.387 325.397C361.325 321.374 344.225 263.396 327.913 232.8C316.657 211.711 302.783 190.233 283.102 174.66C268.189 191.401 258.366 212.458 254.566 233.32C274.821 257.783 287.117 295.029 298.911 314.626C308.483 330.524 320.242 346.454 335.442 358.361C354.979 373.707 377.385 382.208 403.017 384.641C445.605 388.664 488.194 366.991 510.026 334.449C518.917 321.212 513.503 301.323 498.052 294.023ZM451.879 307.326C451.52 307.683 451.198 308.039 450.839 308.429C452.166 306.936 453.958 305.152 451.879 307.326Z" fill="#4E9CFE"/>
<path d="M264.137 162.655C229.578 145.654 181.791 146.011 149.312 167.197C145.261 169.825 141.497 172.648 137.912 175.6C157.127 189.844 165.552 210.738 168.922 232.963C169.567 232.054 170.212 231.146 170.893 230.237C171.467 229.458 172.076 228.68 172.65 227.934C181.433 216.675 196.023 209.473 211.331 209.635C229.148 209.83 243.129 219.53 254.529 233.319C258.329 212.49 268.187 191.401 283.065 174.66C277.329 170.117 271.02 166.062 264.137 162.655Z" fill="white"/>
<path d="M237.326 166.873L231.733 134.137C234.96 135.305 238.724 135.078 241.807 133.163C246.754 130.146 248.044 124.079 244.71 119.602C241.376 115.124 234.673 113.956 229.726 116.974C229.439 117.168 229.152 117.33 228.901 117.558L226.499 103.444C226.212 101.692 224.563 100.394 222.592 100.394C212.877 100.362 185.38 102.698 178.856 129.595C178.354 131.639 179.86 133.65 182.118 133.942L193.805 135.564L185.165 164.343C181.903 175.212 187.209 186.859 198.25 192.05C198.752 192.278 199.29 192.537 199.828 192.764C219.15 200.875 240.552 185.886 237.326 166.873Z" fill="#4E9CFE"/>
<path d="M220.081 120.705C219.83 115.579 214.632 111.848 209.075 112.529C206.996 112.789 207.892 115.644 209.936 115.384C213.341 114.962 216.64 117.655 216.783 120.705C216.891 122.619 220.153 122.619 220.081 120.705Z" fill="#1C0070"/>
<path d="M203.519 106.04C197.282 107.922 191.044 109.836 184.806 111.718C183.91 112.01 183.157 113.08 183.838 113.891C185.272 115.708 186.742 117.525 188.176 119.31C189.395 120.834 192.227 119.374 191.008 117.817C189.574 116 188.104 114.183 186.67 112.399C186.348 113.113 186.025 113.859 185.702 114.573C191.94 112.691 198.178 110.777 204.416 108.895C206.387 108.278 205.527 105.423 203.519 106.04Z" fill="#1C0070"/>
<path d="M198.429 124.598C198.393 125.377 196.887 126.156 196.17 125.572C194.557 124.371 192.227 126.448 193.84 127.681C196.744 129.887 201.548 128.102 201.691 124.598C201.763 122.684 198.501 122.684 198.429 124.598Z" fill="#1C0070"/>
<path d="M237.899 122.846C235.533 123.236 233.167 123.593 230.837 123.982C228.757 124.306 229.654 127.162 231.697 126.837C234.063 126.448 236.429 126.091 238.759 125.702C240.838 125.377 239.942 122.522 237.899 122.846Z" fill="#1C0070"/>
<path d="M78.3323 355.02C83.9248 351.97 87.9757 347.298 89.9115 341.653C90.5568 339.836 87.4021 339.057 86.7568 340.874C85.0719 345.773 81.5229 349.829 76.6833 352.457C74.8908 353.43 76.5399 355.993 78.3323 355.02Z" fill="#1C0070"/>
<path d="M324.291 336.007C328.055 341.393 332.608 346.26 337.878 350.51C339.455 351.775 341.785 349.699 340.208 348.401C335.153 344.313 330.78 339.674 327.159 334.482C325.976 332.925 323.144 334.385 324.291 336.007Z" fill="#1C0070"/>
</g>
<g filter="url(#filter0_ddddd_3073_5438)">
<rect x="-186" y="277" width="746" height="746" rx="373" fill="white"/>
</g>
<rect x="121" y="799" width="134" height="5" rx="2.5" fill="#E6E6E6" fill-opacity="0.36"/>
</g>
<defs>
<filter id="filter0_ddddd_3073_5438" x="-296" y="-107" width="966" height="1151" filterUnits="userSpaceOnUse" color-interpolation-filters="sRGB">
<feFlood flood-opacity="0" result="BackgroundImageFix"/>
<feColorMatrix in="SourceAlpha" type="matrix" values="0 0 0 0 0 0 0 0 0 0 0 0 0 0 0 0 0 0 127 0" result="hardAlpha"/>
<feOffset/>
<feColorMatrix type="matrix" values="0 0 0 0 0.294118 0 0 0 0 0.203922 0 0 0 0 0.145098 0 0 0 0.05 0"/>
<feBlend mode="normal" in2="BackgroundImageFix" result="effect1_dropShadow_3073_5438"/>
<feColorMatrix in="SourceAlpha" type="matrix" values="0 0 0 0 0 0 0 0 0 0 0 0 0 0 0 0 0 0 127 0" result="hardAlpha"/>
<feOffset dy="-17"/>
<feGaussianBlur stdDeviation="19"/>
<feColorMatrix type="matrix" values="0 0 0 0 0.294118 0 0 0 0 0.203922 0 0 0 0 0.145098 0 0 0 0.05 0"/>
<feBlend mode="normal" in2="effect1_dropShadow_3073_5438" result="effect2_dropShadow_3073_5438"/>
<feColorMatrix in="SourceAlpha" type="matrix" values="0 0 0 0 0 0 0 0 0 0 0 0 0 0 0 0 0 0 127 0" result="hardAlpha"/>
<feOffset dy="-69"/>
<feGaussianBlur stdDeviation="34.5"/>
<feColorMatrix type="matrix" values="0 0 0 0 0.294118 0 0 0 0 0.203922 0 0 0 0 0.145098 0 0 0 0.04 0"/>
<feBlend mode="normal" in2="effect2_dropShadow_3073_5438" result="effect3_dropShadow_3073_5438"/>
<feColorMatrix in="SourceAlpha" type="matrix" values="0 0 0 0 0 0 0 0 0 0 0 0 0 0 0 0 0 0 127 0" result="hardAlpha"/>
<feOffset dy="-154"/>
<feGaussianBlur stdDeviation="46.5"/>
<feColorMatrix type="matrix" values="0 0 0 0 0.294118 0 0 0 0 0.203922 0 0 0 0 0.145098 0 0 0 0.03 0"/>
<feBlend mode="normal" in2="effect3_dropShadow_3073_5438" result="effect4_dropShadow_3073_5438"/>
<feColorMatrix in="SourceAlpha" type="matrix" values="0 0 0 0 0 0 0 0 0 0 0 0 0 0 0 0 0 0 127 0" result="hardAlpha"/>
<feOffset dy="-274"/>
<feGaussianBlur stdDeviation="55"/>
<feColorMatrix type="matrix" values="0 0 0 0 0.294118 0 0 0 0 0.203922 0 0 0 0 0.145098 0 0 0 0.01 0"/>
<feBlend mode="normal" in2="effect4_dropShadow_3073_5438" result="effect5_dropShadow_3073_5438"/>
<feBlend mode="normal" in="SourceGraphic" in2="effect5_dropShadow_3073_5438" result="shape"/>
</filter>
<clipPath id="clip0_3073_5438">
<rect width="375" height="812" fill="white"/>
</clipPath>
<clipPath id="clip1_3073_5438">
<rect x="-527" y="-611" width="1176" height="1065" rx="532.5" fill="white"/>
</clipPath>
</defs>
</svg>
