<svg width="48" height="48" viewBox="0 0 48 48" fill="none" xmlns="http://www.w3.org/2000/svg">
<path d="M28 13H42.533C43.343 13 44 13.657 44 14.467V33.533C44 34.343 43.343 35 42.533 35H28V13Z" fill="#1976D2"/>
<path d="M42 17.958H28V33.5H42V17.958Z" fill="white"/>
<path d="M27 44L4 39.5V8.5L27 4V44Z" fill="#1976D2"/>
<path d="M15.25 16.5C12.074 16.5 9.5 19.858 9.5 24C9.5 28.142 12.074 31.5 15.25 31.5C18.426 31.5 21 28.142 21 24C21 19.858 18.426 16.5 15.25 16.5ZM15 28.5C13.343 28.5 12 26.485 12 24C12 21.515 13.343 19.5 15 19.5C16.657 19.5 18 21.515 18 24C18 26.485 16.657 28.5 15 28.5Z" fill="white"/>
<path d="M30.7471 29.7373H28.0471V32.6373H30.7471V29.7373Z" fill="#1976D2"/>
<path d="M34.148 29.7373H31.448V32.6373H34.148V29.7373Z" fill="#1976D2"/>
<path d="M37.5491 29.7373H34.8491V32.6373H37.5491V29.7373Z" fill="#1976D2"/>
<path d="M30.7471 26.1592H28.0471V29.0592H30.7471V26.1592Z" fill="#1976D2"/>
<path d="M34.148 26.1592H31.448V29.0592H34.148V26.1592Z" fill="#1976D2"/>
<path d="M37.5491 26.1592H34.8491V29.0592H37.5491V26.1592Z" fill="#1976D2"/>
<path d="M40.95 26.1592H38.25V29.0592H40.95V26.1592Z" fill="#1976D2"/>
<path d="M30.7471 22.7061H28.0471V25.6061H30.7471V22.7061Z" fill="#1976D2"/>
<path d="M34.148 22.7061H31.448V25.6061H34.148V22.7061Z" fill="#1976D2"/>
<path d="M37.5491 22.7061H34.8491V25.6061H37.5491V22.7061Z" fill="#1976D2"/>
<path d="M40.95 22.7061H38.25V25.6061H40.95V22.7061Z" fill="#1976D2"/>
<path d="M34.148 19.1123H31.448V22.0123H34.148V19.1123Z" fill="#1976D2"/>
<path d="M37.5491 19.1123H34.8491V22.0123H37.5491V19.1123Z" fill="#1976D2"/>
<path d="M40.95 19.1123H38.25V22.0123H40.95V19.1123Z" fill="#1976D2"/>
</svg>
