<svg width="60" height="60" viewBox="0 0 60 60" fill="none" xmlns="http://www.w3.org/2000/svg">
<g filter="url(#filter0_d_1558_4323)">
<path d="M50 26C50 14.9543 41.0457 6 30 6C18.9543 6 10 14.9543 10 26C10 37.0457 18.9543 46 30 46C41.0457 46 50 37.0457 50 26Z" fill="#F9FBFB"/>
</g>
<path d="M27.1554 18.3661L27.8464 16.5822C27.963 16.2801 28.1681 16.0203 28.4347 15.8368C28.7014 15.6533 29.0173 15.5545 29.3411 15.5536H30.6589C30.9827 15.5545 31.2986 15.6533 31.5653 15.8368C31.832 16.0203 32.037 16.2801 32.1536 16.5822L32.8447 18.3661L35.191 19.7161L37.0875 19.4268C37.4033 19.3839 37.7247 19.4359 38.0109 19.5761C38.297 19.7164 38.535 19.9385 38.6946 20.2143L39.3375 21.3393C39.5022 21.6195 39.5782 21.9431 39.5552 22.2673C39.5322 22.5915 39.4115 22.9012 39.2089 23.1554L38.0357 24.65V27.35L39.241 28.8447C39.4437 29.0989 39.5644 29.4085 39.5874 29.7327C39.6103 30.057 39.5343 30.3805 39.3696 30.6607L38.7267 31.7857C38.5672 32.0615 38.3291 32.2836 38.0431 32.4239C37.7568 32.5641 37.4354 32.6161 37.1196 32.5732L35.2232 32.2839L32.8768 33.6339L32.1857 35.4179C32.0692 35.7199 31.8641 35.9797 31.5974 36.1633C31.3307 36.3468 31.0148 36.4455 30.6911 36.4464H29.3411C29.0173 36.4455 28.7014 36.3468 28.4347 36.1633C28.1681 35.9797 27.963 35.7199 27.8464 35.4179L27.1554 33.6339L24.8089 32.2839L22.9125 32.5732C22.5967 32.6161 22.2754 32.5641 21.9892 32.4239C21.703 32.2836 21.465 32.0615 21.3054 31.7857L20.6625 30.6607C20.4978 30.3805 20.4219 30.057 20.4448 29.7327C20.4678 29.4085 20.5885 29.0989 20.7911 28.8447L21.9643 27.35V24.65L20.7589 23.1554C20.5564 22.9012 20.4357 22.5915 20.4127 22.2673C20.3898 21.9431 20.4656 21.6195 20.6304 21.3393L21.2732 20.2143C21.4329 19.9385 21.6709 19.7164 21.957 19.5761C22.2432 19.4359 22.5646 19.3839 22.8804 19.4268L24.7768 19.7161L27.1554 18.3661ZM26.7857 26C26.7857 26.6357 26.9743 27.2572 27.3274 27.7858C27.6806 28.3144 28.1826 28.7263 28.77 28.9696C29.3573 29.2129 30.0036 29.2766 30.6271 29.1525C31.2506 29.0285 31.8233 28.7224 32.2729 28.2729C32.7224 27.8233 33.0285 27.2506 33.1525 26.6271C33.2766 26.0036 33.2129 25.3573 32.9696 24.77C32.7264 24.1826 32.3144 23.6806 31.7858 23.3274C31.2572 22.9743 30.6357 22.7857 30 22.7857C29.1475 22.7857 28.33 23.1244 27.7272 23.7272C27.1244 24.33 26.7857 25.1475 26.7857 26Z" stroke="black" stroke-width="1.5" stroke-linecap="round" stroke-linejoin="round"/>
<defs>
<filter id="filter0_d_1558_4323" x="0" y="0" width="60" height="60" filterUnits="userSpaceOnUse" color-interpolation-filters="sRGB">
<feFlood flood-opacity="0" result="BackgroundImageFix"/>
<feColorMatrix in="SourceAlpha" type="matrix" values="0 0 0 0 0 0 0 0 0 0 0 0 0 0 0 0 0 0 127 0" result="hardAlpha"/>
<feOffset dy="4"/>
<feGaussianBlur stdDeviation="5"/>
<feComposite in2="hardAlpha" operator="out"/>
<feColorMatrix type="matrix" values="0 0 0 0 0 0 0 0 0 0 0 0 0 0 0 0 0 0 0.02 0"/>
<feBlend mode="normal" in2="BackgroundImageFix" result="effect1_dropShadow_1558_4323"/>
<feBlend mode="normal" in="SourceGraphic" in2="effect1_dropShadow_1558_4323" result="shape"/>
</filter>
</defs>
</svg>
