<svg width="42" height="44" viewBox="0 0 42 44" fill="none" xmlns="http://www.w3.org/2000/svg">
<path d="M23.1454 34.6758L24.0478 43.0938H11.1698V37.8203L6.96477 39.1035C6.54352 39.2324 6.09792 39.2607 5.66376 39.1861C5.22959 39.1116 4.81896 38.9363 4.46483 38.6743C4.1107 38.4122 3.82295 38.0708 3.62467 37.6775C3.4264 37.2841 3.32313 36.8497 3.32317 36.4092V29.501H1.58391C1.34985 29.501 1.11978 29.4403 0.916237 29.3248C0.71269 29.2092 0.542641 29.0428 0.422739 28.8418C0.302838 28.6408 0.237195 28.4121 0.232237 28.178C0.227279 27.944 0.283177 27.7127 0.394457 27.5068L3.32414 22.0801V21.9053C3.3243 18.5615 4.51922 15.3279 6.69341 12.7875C8.8676 10.2471 11.878 8.56724 15.1816 8.05078V11.9951C15.1809 12.094 15.1571 12.1913 15.1121 12.2793C15.0672 12.3674 15.0023 12.4437 14.9226 12.5022C14.8429 12.5607 14.7507 12.5998 14.6532 12.6164C14.5558 12.633 14.4558 12.6266 14.3613 12.5977C13.9748 12.4842 13.5672 12.4623 13.1709 12.5339C12.7745 12.6054 12.4003 12.7683 12.0779 13.0096C11.7554 13.251 11.4937 13.5642 11.3134 13.9243C11.1331 14.2845 11.0393 14.6817 11.0393 15.0845C11.0393 15.4872 11.1331 15.8844 11.3134 16.2446C11.4937 16.6048 11.7554 16.9179 12.0779 17.1593C12.4003 17.4007 12.7745 17.5636 13.1709 17.6351C13.5672 17.7066 13.9748 17.6848 14.3613 17.5713C14.4557 17.5428 14.5554 17.5368 14.6525 17.5538C14.7497 17.5707 14.8415 17.6101 14.9207 17.6688C14.9999 17.7275 15.0643 17.804 15.1088 17.892C15.1532 17.98 15.1765 18.0772 15.1767 18.1758V19.7217C15.1767 20.1159 15.3333 20.4939 15.612 20.7727C15.8908 21.0514 16.2688 21.208 16.663 21.208H21.2929C21.3918 21.2085 21.4893 21.2322 21.5774 21.2771C21.6655 21.322 21.742 21.3869 21.8005 21.4666C21.8591 21.5463 21.8982 21.6386 21.9146 21.7362C21.9311 21.8337 21.9245 21.9338 21.8954 22.0283C21.7826 22.4148 21.7615 22.8223 21.8335 23.2184C21.9056 23.6145 22.069 23.9883 22.3107 24.3103C22.5524 24.6323 22.8658 24.8936 23.226 25.0734C23.5862 25.2532 23.9834 25.3466 24.386 25.3462C24.7886 25.3458 25.1856 25.2516 25.5455 25.0711C25.9053 24.8906 26.2182 24.6287 26.4593 24.3063C26.7004 23.9838 26.863 23.6096 26.9343 23.2134C27.0056 22.8171 26.9836 22.4097 26.87 22.0234C26.8416 21.929 26.8356 21.8293 26.8525 21.7321C26.8695 21.635 26.9089 21.5432 26.9676 21.464C27.0263 21.3848 27.1027 21.3204 27.1907 21.2759C27.2787 21.2315 27.3759 21.2082 27.4745 21.208H31.3456C31.3573 21.4398 31.3632 21.6722 31.3632 21.9053C31.3639 24.5982 30.5893 27.2343 29.1321 29.4989C27.6749 31.7634 25.5966 33.5606 23.1454 34.6758Z" fill="#4E9CFE"/>
<path d="M36.0439 16.4571C36.1903 16.9022 36.2288 17.3757 36.1563 17.8387C36.0837 18.3016 35.9023 18.7407 35.6268 19.1198C35.3513 19.4988 34.9898 19.807 34.5719 20.019C34.1539 20.2309 33.6917 20.3406 33.2231 20.3389C32.7545 20.3371 32.293 20.2241 31.8767 20.0091C31.4603 19.7941 31.101 19.4833 30.8283 19.1022C30.5557 18.7212 30.3774 18.2808 30.3083 17.8173C30.2391 17.3539 30.2811 16.8806 30.4307 16.4366C30.4609 16.342 30.4683 16.2416 30.4523 16.1436C30.4362 16.0456 30.3972 15.9528 30.3385 15.8728C30.2797 15.7928 30.2028 15.7279 30.1141 15.6833C30.0254 15.6387 29.9274 15.6157 29.8281 15.6162H24.2119C23.8177 15.6162 23.4397 15.4596 23.1609 15.1809C22.8822 14.9022 22.7256 14.5241 22.7256 14.1299V12.0371C22.7248 11.9362 22.7 11.8369 22.6532 11.7475C22.6064 11.6581 22.539 11.581 22.4565 11.5228C22.3741 11.4646 22.279 11.4269 22.179 11.4127C22.0791 11.3986 21.9772 11.4084 21.8818 11.4414C21.4375 11.5873 20.965 11.6257 20.5029 11.5537C20.0409 11.4816 19.6025 11.301 19.2237 11.0268C18.8449 10.7525 18.5365 10.3924 18.3238 9.97594C18.1111 9.55948 18.0001 9.09853 18 8.63089C18.0001 8.16104 18.112 7.69798 18.3266 7.28C18.5412 6.86202 18.8523 6.50115 19.234 6.22725C19.6157 5.95335 20.0572 5.77429 20.5219 5.70489C20.9866 5.63549 21.4611 5.67774 21.9062 5.82815C22.0009 5.8584 22.1014 5.86578 22.1994 5.84971C22.2975 5.83363 22.3903 5.79455 22.4704 5.73566C22.5504 5.67678 22.6154 5.59977 22.6599 5.51094C22.7044 5.42211 22.7273 5.324 22.7266 5.22464V0.601589C24.9432 0.256773 27.2075 0.381459 29.3728 0.967568C31.5382 1.55368 33.5562 2.58814 35.2963 4.00393C37.0363 5.41972 38.4596 7.18527 39.4737 9.18618C40.4879 11.1871 41.0705 13.3788 41.1836 15.6192H36.6377C36.5374 15.6199 36.4387 15.6446 36.3498 15.691C36.2609 15.7374 36.1843 15.8042 36.1263 15.8861C36.0683 15.9679 36.0306 16.0624 36.0163 16.1616C36.002 16.2609 36.0114 16.3622 36.0439 16.4571Z" fill="#4E9CFE"/>
</svg>
