<svg width="30" height="30" viewBox="0 0 30 30" fill="none" xmlns="http://www.w3.org/2000/svg">
<path d="M28.4045 17.4848L28.3958 17.4891C27.3675 18.2777 26.9318 19.6197 27.2978 20.8615L27.3022 20.8703C27.886 22.844 26.4395 24.8352 24.3828 24.8875H24.3742C23.0757 24.9224 21.9342 25.7502 21.5028 26.9745V26.9789C20.8143 28.9221 18.4703 29.6846 16.7753 28.5125C15.7229 27.7939 14.3316 27.7564 13.2242 28.5125H13.2199C11.525 29.6802 9.18087 28.9221 8.49679 26.9745C8.28564 26.3769 7.89811 25.8574 7.38543 25.4848C6.87275 25.1121 6.25905 24.9038 5.62546 24.8874H5.61673C3.56021 24.8351 2.11358 22.844 2.69747 20.8702L2.70181 20.8615C3.06772 19.6196 2.63202 18.2777 1.60382 17.489L1.59509 17.4847C-0.0388575 16.2298 -0.0388575 13.7724 1.59509 12.5176L1.60382 12.5133C2.63202 11.7246 3.06772 10.3826 2.69747 9.14083V9.1321C2.10919 7.15837 3.56015 5.16712 5.61673 5.11486H5.62546C6.9195 5.07999 8.06542 4.25212 8.49679 3.02781V3.02347C9.18081 1.08021 11.525 0.317728 13.2199 1.48984H13.2242C14.2917 2.22619 15.7034 2.22619 16.7753 1.48984C18.4873 0.307592 20.8184 1.09187 21.5028 3.02347V3.02781C21.9342 4.24779 23.0757 5.08005 24.3742 5.11486H24.3828C26.4394 5.16712 27.886 7.15837 27.3022 9.1321L27.2978 9.14083C26.9318 10.3826 27.3675 11.7246 28.3958 12.5133L28.4045 12.5176C30.0385 13.7724 30.0385 16.2299 28.4045 17.4848Z" fill="#3EB655"/>
<path d="M15 23.1162C19.4825 23.1162 23.1162 19.4825 23.1162 15C23.1162 10.5175 19.4825 6.88379 15 6.88379C10.5175 6.88379 6.88379 10.5175 6.88379 15C6.88379 19.4825 10.5175 23.1162 15 23.1162Z" fill="#8BD399"/>
<path d="M21.2316 9.80461C19.8278 8.64973 18.0317 7.95557 16.0737 7.95557C11.5913 7.95557 7.95557 11.5913 7.95557 16.0737C7.95557 18.0317 8.64973 19.8278 9.80455 21.2316C8.0209 19.7437 6.88477 17.5056 6.88477 14.9998C6.88477 10.5173 10.5174 6.88477 14.9998 6.88477C17.5056 6.88477 19.7438 8.0209 21.2316 9.80461Z" fill="black" fill-opacity="0.0627451"/>
<path d="M13.069 18.1774L11.2743 16.268C10.8042 15.7678 10.8285 14.9814 11.3285 14.5114C11.8284 14.0408 12.6152 14.066 13.0848 14.5658L13.9416 15.477L17.5833 11.3146C18.0348 10.798 18.8199 10.7456 19.3369 11.1977C19.8534 11.6497 19.9056 12.4347 19.4538 12.9512L14.9095 18.1447C14.4254 18.6974 13.5711 18.7119 13.069 18.1774Z" fill="white"/>
</svg>
