<svg width="25" height="24" viewBox="0 0 25 24" fill="none" xmlns="http://www.w3.org/2000/svg">
<path d="M7.5 4.82936C7.5 6.37714 9.22593 8.00761 10.6497 9.08932C11.4489 9.69644 11.8484 10 12.5 10C13.1516 10 13.5512 9.69644 14.3503 9.08933C15.7741 8.00763 17.5 6.37717 17.5 4.82935C17.5 2.03918 14.7499 0.997462 12.5 3.15285C10.2501 0.997462 7.5 2.03918 7.5 4.82936Z" fill="#4E9CFE"/>
<path d="M6.75993 21.3884H6.5C5.55719 21.3884 5.08579 21.3884 4.79289 21.0955C4.5 20.8026 4.5 20.3312 4.5 19.3884V18.2764C4.5 17.7579 4.5 17.4987 4.63318 17.2672C4.76636 17.0356 4.96727 16.9188 5.3691 16.6851C8.01457 15.1464 11.7715 14.2803 14.2791 15.7759C14.4475 15.8764 14.5991 15.9977 14.7285 16.1431C15.2866 16.77 15.246 17.7161 14.6028 18.2775C14.4669 18.396 14.3222 18.486 14.1764 18.5172C14.2962 18.5033 14.411 18.4874 14.5206 18.4699C15.432 18.3245 16.197 17.8375 16.8974 17.3084L18.7046 15.9433C19.3417 15.462 20.2873 15.4619 20.9245 15.943C21.4982 16.3762 21.6736 17.0894 21.3109 17.6707C20.888 18.3487 20.2921 19.216 19.7199 19.7459C19.1469 20.2766 18.2939 20.7504 17.5975 21.0865C16.826 21.4589 15.9738 21.6734 15.1069 21.8138C13.3488 22.0983 11.5166 22.0549 9.77633 21.6964C8.79253 21.4937 7.77079 21.3884 6.75993 21.3884Z" fill="#4E9CFE"/>
</svg>
