<svg width="25" height="24" viewBox="0 0 25 24" fill="none" xmlns="http://www.w3.org/2000/svg">
<path d="M12.5 3.10615L11.9925 3.65833C12.2794 3.9221 12.7206 3.9221 13.0075 3.65833L12.5 3.10615ZM11.0915 8.19612C10.4013 7.69298 9.66512 7.08112 9.10883 6.43627C8.53452 5.77053 8.25 5.18233 8.25 4.71476H6.75C6.75 5.73229 7.32845 6.66885 7.97305 7.41607C8.63569 8.18419 9.47435 8.87349 10.2079 9.40825L11.0915 8.19612ZM8.25 4.71476C8.25 3.65612 8.77002 3.05231 9.3955 2.84182C10.0475 2.62238 11.0199 2.76435 11.9925 3.65833L13.0075 2.55398C11.7302 1.37988 10.2025 0.987561 8.91707 1.42016C7.60502 1.8617 6.75 3.09623 6.75 4.71476H8.25ZM14.7921 9.40826C15.5257 8.8735 16.3643 8.18421 17.027 7.41608C17.6716 6.66886 18.25 5.73229 18.25 4.71475H16.75C16.75 5.18234 16.4655 5.77055 15.8912 6.43629C15.3349 7.08113 14.5987 7.69299 13.9085 8.19613L14.7921 9.40826ZM18.25 4.71475C18.25 3.09622 17.395 1.8617 16.0829 1.42016C14.7975 0.987561 13.2698 1.37988 11.9925 2.55398L13.0075 3.65833C13.9801 2.76435 14.9525 2.62238 15.6045 2.84181C16.23 3.0523 16.75 3.65612 16.75 4.71475H18.25ZM10.2079 9.40825C10.963 9.95869 11.5618 10.426 12.5 10.426V8.92598C12.135 8.92598 11.9347 8.81074 11.0915 8.19612L10.2079 9.40825ZM13.9085 8.19613C13.0653 8.81074 12.865 8.92598 12.5 8.92598V10.426C13.4382 10.426 14.037 9.9587 14.7921 9.40826L13.9085 8.19613Z" fill="#8E9FC7"/>
<path d="M5.5 20.3884H7.75993C8.77079 20.3884 9.79253 20.4937 10.7763 20.6964C12.5166 21.0549 14.3488 21.0983 16.1069 20.8138C16.9738 20.6734 17.826 20.4589 18.5975 20.0865C19.2939 19.7504 20.1469 19.2766 20.7199 18.7459C21.2921 18.216 21.888 17.3487 22.3109 16.6707C22.6736 16.0894 22.4982 15.3762 21.9245 14.943C21.2873 14.4619 20.3417 14.462 19.7046 14.9433L17.8974 16.3084C17.197 16.8375 16.432 17.3245 15.5206 17.4699C15.411 17.4874 15.2962 17.5033 15.1764 17.5172M15.1764 17.5172C15.1403 17.5214 15.1038 17.5254 15.0668 17.5292M15.1764 17.5172C15.3222 17.486 15.4669 17.396 15.6028 17.2775C16.246 16.7161 16.2866 15.77 15.7285 15.1431C15.5991 14.9977 15.4475 14.8764 15.2791 14.7759C12.4817 13.1074 8.12942 14.3782 5.5 16.2429M15.1764 17.5172C15.1399 17.525 15.1033 17.5292 15.0668 17.5292M15.0668 17.5292C14.5434 17.5829 13.9312 17.5968 13.2518 17.5326" stroke="#8E9FC7" stroke-width="1.5" stroke-linecap="round"/>
<path d="M4 14C4 14 5.5 14 5.5 15.5V20.5C5.5 20.5 5.5 22 4 22C2.5 22 2.5 22 2.5 20.5V15.5C2.5 15.5 2.5 14 4 14Z" stroke="#8E9FC7" stroke-width="1.5"/>
</svg>
