<svg width="375" height="812" viewBox="0 0 375 812" fill="none" xmlns="http://www.w3.org/2000/svg">
<g clip-path="url(#clip0_3073_5323)">
<rect width="375" height="812" fill="white"/>
<rect x="121" y="799" width="134" height="5" rx="2.5" fill="#E6E6E6" fill-opacity="0.36"/>
<path d="M205.294 152.101C211.32 139.982 220.472 129.846 231.918 122.66C233.042 121.962 232.008 120.182 230.883 120.881C219.145 128.247 209.701 138.631 203.518 151.065C202.91 152.259 204.687 153.295 205.294 152.101Z" fill="white"/>
<path d="M274.371 309.893C276.53 280.069 256.472 250.629 231.108 238.127C228.432 236.82 225.599 239.591 226.565 242.564C227.307 244.817 228.702 247.002 230.186 248.804C232.165 251.214 235.965 254.796 238.146 258.287C239.27 260.089 237.696 262.409 235.74 261.824C219.572 256.913 204.821 248.173 204.821 248.173C197.513 242.925 188.541 238.284 181.93 236.955C178.647 236.302 176.331 240.222 178.288 243.127C181.188 247.452 184.944 252.408 187.462 253.422C183.437 252.791 179.524 248.421 175.184 249.885C173.386 250.493 172.036 252.228 172.014 254.278C171.946 260.315 182.403 261.013 184.651 266.509C181.908 265.788 176.084 264.73 173.363 263.964C173.296 263.941 173.228 263.919 173.138 263.896C167.382 262.342 164.751 271.217 170.238 273.672L197.221 285.768C200.392 287.188 199.087 292.278 195.692 291.715L179.21 288.99C177.186 288.697 175.162 289.823 174.442 291.873C173.048 295.77 177.635 298.022 181.031 299.351C190.228 302.956 197.513 311.831 199.649 322.08C200.054 324.017 210.083 473.724 210.196 475.639C212.579 512.581 264.477 534.093 284.602 494.515L274.371 309.893Z" fill="#FEAF8F"/>
<path d="M224.632 288.968C229.871 292.752 236.73 296.334 240.058 302.055C243.228 307.506 243.768 314.106 244.285 320.233C244.398 321.54 246.444 321.562 246.331 320.233C245.792 313.723 245.162 306.786 241.812 301.019C238.281 294.937 231.176 291.198 225.644 287.188C224.61 286.4 223.575 288.179 224.632 288.968Z" fill="#4B3425"/>
<path d="M237.585 242.61C234.932 242.272 232.751 240.538 231.469 238.218C230.817 237.069 229.04 238.105 229.692 239.254C231.356 242.25 234.19 244.232 237.585 244.66C238.912 244.84 238.889 242.768 237.585 242.61Z" fill="#4B3425"/>
<path d="M209.386 264.729C201.156 259.774 192.927 254.818 184.697 249.862C183.55 249.187 182.515 250.966 183.662 251.642C191.892 256.598 200.122 261.553 208.352 266.509C209.476 267.185 210.533 265.405 209.386 264.729Z" fill="#4B3425"/>
<path d="M205.744 275.271C197.694 272.163 189.891 268.536 182.313 264.414C181.144 263.783 180.109 265.563 181.279 266.193C189.014 270.406 196.997 274.1 205.204 277.254C206.441 277.727 206.958 275.744 205.744 275.271Z" fill="#4B3425"/>
<path d="M227.151 264.688C225.329 266.558 223.98 268.72 223.013 271.13C222.519 272.369 224.52 272.887 224.992 271.671C225.824 269.599 227.038 267.729 228.612 266.13C229.534 265.206 228.073 263.742 227.151 264.688Z" fill="white"/>
<path d="M217.774 275.587C216.245 277.344 214.739 279.101 213.21 280.836C212.355 281.827 213.794 283.291 214.671 282.3C216.2 280.543 217.707 278.786 219.236 277.051C220.091 276.038 218.629 274.574 217.774 275.587Z" fill="white"/>
<path d="M203.001 296.535C202.461 298.36 201.629 300.027 200.505 301.581C199.718 302.662 201.517 303.676 202.281 302.617C203.496 300.928 204.395 299.058 204.98 297.076C205.362 295.815 203.383 295.274 203.001 296.535Z" fill="white"/>
<path d="M175.544 318.542C188.811 293.877 182.942 261.012 166.055 240.581C164.279 238.419 160.771 239.725 160.478 242.631C160.254 244.838 160.613 247.249 161.176 249.366C161.94 252.182 163.806 256.709 164.346 260.539C164.616 262.521 162.39 263.895 160.951 262.634C149.011 252.227 139.746 239.072 139.746 239.072C135.496 231.774 129.605 224.363 124.478 220.691C121.937 218.866 118.429 221.322 118.991 224.565C119.823 229.386 121.128 235.062 122.904 236.887C119.711 234.814 118.047 229.566 113.775 229.138C111.998 228.958 110.177 229.949 109.39 231.661C107.006 236.797 115.686 241.414 115.506 246.978C113.437 245.311 108.873 242.18 106.826 240.468C106.781 240.423 106.714 240.378 106.669 240.333C102.352 236.797 96.6852 243.374 100.44 247.587L118.857 268.31C121.015 270.743 117.957 274.595 115.281 272.815L102.239 264.165C100.62 263.129 98.4616 263.332 97.0674 264.796C94.3916 267.589 97.4497 271.283 99.8332 273.716C106.332 280.339 109.143 290.723 107.029 300.296C106.624 302.121 15.9039 500.647 15.2743 502.314C3.15426 534.796 51.0948 556.51 83.4524 530.403L175.544 318.542Z" fill="#4B3425"/>
<path d="M140.939 281.488C143.997 286.804 148.584 292.616 149.169 298.855C149.731 304.689 147.64 310.524 145.751 315.93C145.301 317.191 147.303 317.732 147.73 316.47C149.821 310.501 151.98 304.126 151.103 297.729C150.226 291.467 145.796 285.813 142.716 280.452C142.063 279.303 140.287 280.339 140.939 281.488Z" fill="#4B3425"/>
<path d="M170.014 246.888C167.9 245.581 166.618 243.374 166.393 240.896C166.281 239.59 164.212 239.567 164.347 240.896C164.617 244.095 166.213 246.955 168.979 248.667C170.104 249.366 171.138 247.586 170.014 246.888Z" fill="#4B3425"/>
<path d="M137.41 254.995C132.26 247.606 127.133 240.195 121.984 232.807C121.242 231.726 119.443 232.762 120.208 233.843C125.357 241.232 130.484 248.642 135.633 256.031C136.375 257.112 138.152 256.098 137.41 254.995Z" fill="#4B3425"/>
<path d="M130.258 262.567C124.569 256.823 119.285 250.741 114.383 244.299C113.596 243.262 111.797 244.276 112.606 245.335C117.598 251.912 122.995 258.152 128.796 264.008C129.741 264.977 131.202 263.513 130.258 262.567Z" fill="#4B3425"/>
<path d="M152.564 261.669C150.293 262.57 148.269 263.854 146.492 265.566C145.548 266.489 146.987 267.954 147.954 267.03C149.438 265.588 151.17 264.417 153.103 263.674C154.34 263.178 153.8 261.173 152.564 261.669Z" fill="white"/>
<path d="M140.129 267.478C138.15 268.401 136.194 269.302 134.215 270.226C133.023 270.789 134.058 272.569 135.249 272.006C137.228 271.082 139.185 270.181 141.163 269.257C142.355 268.694 141.321 266.915 140.129 267.478Z" fill="white"/>
<path d="M119.666 279.575C118.497 280.927 117.17 282.053 115.619 282.954C114.472 283.607 115.506 285.387 116.653 284.733C118.34 283.765 119.846 282.526 121.105 281.039C121.982 280.026 120.521 278.561 119.666 279.575Z" fill="white"/>
<path d="M101.048 310.14C97.0457 309.127 93.358 311.469 91.6491 315.141C89.7827 319.196 91.1993 323.723 93.2905 327.395C98.5748 336.698 107.007 344.92 115.439 351.34C124.097 357.962 133.968 363.031 144.537 365.734C148.854 366.837 154.206 367.896 158.006 364.855C161.491 362.084 161.851 357.332 162.031 353.209C162.098 351.88 160.03 351.88 159.985 353.209C159.76 358.255 158.883 364.067 152.767 364.72C148.697 365.148 144.244 363.616 140.422 362.377C132.799 359.877 125.626 356.115 119.105 351.475C112.516 346.812 106.602 341.226 101.431 335.031C98.5523 331.585 95.3368 327.801 93.7178 323.543C91.9414 318.858 93.7852 310.388 100.509 312.1C101.79 312.461 102.33 310.478 101.048 310.14Z" fill="#FE814B"/>
<path d="M99.5871 317.845C92.9986 317.822 82.7224 321.134 85.3083 329.874C86.3427 333.32 89.3783 335.775 92.2341 337.69C96.349 340.438 100.801 342.803 105.321 344.831C122.725 352.647 142.85 355.778 161.739 352.534C165.359 351.926 169.519 350.62 171.161 346.97C172.487 344.042 171.768 340.528 168.912 338.884C167.765 338.231 166.731 340.01 167.878 340.663C170.688 342.285 170.014 346.114 167.855 347.984C166.169 349.471 163.83 350.034 161.671 350.439C157.152 351.273 152.452 351.566 147.865 351.633C138.915 351.746 129.966 350.62 121.331 348.322C112.674 346.024 104.354 342.555 96.6414 337.983C93.1335 335.888 88.1416 333.207 87.1522 328.86C85.5332 321.697 94.5502 319.872 99.5871 319.895C100.914 319.917 100.914 317.845 99.5871 317.845Z" fill="#FE814B"/>
<path d="M290.427 116.692C288.403 113.674 286.312 111.016 284.198 108.695C249.097 63.1036 199.515 110.971 185.124 145.345C182.83 141.718 180.155 138.046 179.525 137.033C174.061 128.158 168.147 119.801 160.569 112.908C153.441 106.42 145.144 101.014 136.284 97.8156C123.804 91.7111 109.885 89.5937 96.461 94.7971C78.562 101.735 68.1734 119.868 71.0067 140.276C74.9193 168.546 91.8739 194.428 107.119 217.044C125.648 244.57 177.231 286.49 177.231 286.49C178.018 286.085 178.783 285.679 179.57 285.251C180.447 285.994 180.919 286.4 180.919 286.4C209.139 272.299 236.617 248.579 257.777 221.481C276.688 197.266 310.44 146.493 290.427 116.692Z" fill="#4E9CFE"/>
<path d="M344.686 405.109C342.393 401.348 288.111 311.583 285.84 307.821C274.485 289.125 266.187 269.01 258.16 248.647C250.042 228.036 254.427 203.483 269.403 187.512C270.077 186.791 272.866 185.485 273.832 185.26C275.834 184.809 277.678 186.949 277.7 188.999C277.723 191.049 276.531 192.918 275.317 194.563C273.293 197.333 271.067 200.059 269.987 203.325C268.908 206.591 269.268 210.601 271.854 212.853C275.586 213.101 277.295 208.348 277.88 204.654C280.016 191.296 281.77 177.376 285.773 164.446C286.717 161.405 290.54 158.296 293.463 159.535C295.307 160.324 295.824 162.666 296.049 164.671C297.375 176.745 295.667 188.728 294.61 200.847C295.037 190.913 297.308 181.205 297.735 171.271C297.848 168.591 297.578 164.919 298.792 162.531C300.006 160.143 302.637 158.251 305.246 158.747C307.584 159.197 309.248 161.405 309.81 163.703C310.395 166 310.507 169.334 310.26 171.699C309.091 182.511 308.866 193.436 309.585 204.294C309.72 195.576 310.687 186.881 312.509 178.367C313.116 175.573 314.083 172.42 316.669 171.226C319.772 169.807 323.504 172.195 324.854 175.303C326.225 178.412 325.888 181.971 325.708 185.372C324.224 211.907 326.045 254.886 425.749 385.242L344.686 405.109Z" fill="#4B3425"/>
<path d="M304.234 158.997C303.019 163.75 304.503 168.728 308.259 171.927C309.271 172.783 310.732 171.341 309.72 170.463C306.527 167.715 305.178 163.638 306.235 159.538C306.55 158.254 304.571 157.713 304.234 158.997Z" fill="white"/>
<path d="M291.371 160.167C289.234 164.47 290.449 169.493 294.249 172.421C295.306 173.232 296.318 171.43 295.283 170.642C292.427 168.434 291.573 164.425 293.147 161.204C293.732 160.01 291.955 158.973 291.371 160.167Z" fill="white"/>
<path d="M318.04 170.865C317.275 173.838 317.545 176.879 318.872 179.672C319.546 181.092 320.491 182.421 321.637 183.502C322.402 184.245 324.628 185.034 325.01 185.799C325.123 185.326 325.258 184.853 325.37 184.38C325.303 184.425 325.213 184.47 325.145 184.515C325.617 184.628 326.09 184.763 326.562 184.876C326.517 184.831 326.494 184.763 326.449 184.718C325.707 183.637 323.908 184.673 324.673 185.754C324.718 185.799 324.74 185.867 324.785 185.912C325.1 186.363 325.685 186.588 326.202 186.272C326.27 186.227 326.359 186.182 326.427 186.137C326.922 185.845 327.057 185.236 326.787 184.718C326.449 184.042 325.932 183.93 325.303 183.569C323.819 182.691 322.559 181.655 321.592 180.213C319.816 177.6 319.276 174.424 320.041 171.361C320.356 170.122 318.377 169.581 318.04 170.865Z" fill="white"/>
<path d="M309.428 187.492C309.406 193.957 309.833 200.377 310.71 206.796C310.89 208.103 312.869 207.54 312.689 206.256C311.857 200.039 311.452 193.799 311.475 187.515C311.497 186.163 309.428 186.163 309.428 187.492Z" fill="white"/>
<path d="M295.284 177.779C294.519 188.254 293.755 198.728 292.968 209.202C292.878 210.531 294.924 210.509 295.036 209.202C295.801 198.728 296.565 188.254 297.352 177.779C297.442 176.473 295.374 176.473 295.284 177.779Z" fill="white"/>
<path d="M322.852 214.924C320.558 215.014 318.377 215.465 316.241 216.321C315.027 216.794 315.566 218.798 316.781 218.303C318.737 217.514 320.738 217.064 322.829 216.974C324.178 216.929 324.178 214.856 322.852 214.924Z" fill="white"/>
<path d="M307.315 217.447C305.066 217.92 302.818 218.122 300.524 218.055C299.197 218.01 299.197 220.082 300.524 220.105C302.998 220.172 305.449 219.947 307.855 219.429C309.136 219.159 308.597 217.176 307.315 217.447Z" fill="white"/>
<path d="M291.056 217.608C288.381 217.856 285.705 218.104 283.029 218.352C281.725 218.464 281.702 220.537 283.029 220.402C285.705 220.154 288.381 219.906 291.056 219.658C292.361 219.546 292.361 217.496 291.056 217.608Z" fill="white"/>
<path d="M262.994 224.296C261.195 225.175 259.261 225.671 257.26 225.761C255.933 225.828 255.933 227.878 257.26 227.81C259.643 227.698 261.892 227.112 264.028 226.053C265.22 225.49 264.186 223.711 262.994 224.296Z" fill="white"/>
<path d="M266.052 193.347C270.775 195.442 275.879 191.275 274.327 186.184C273.945 184.922 271.944 185.463 272.349 186.724C273.315 189.923 270.28 192.987 267.109 191.567C265.895 191.049 264.838 192.806 266.052 193.347Z" fill="white"/>
<path d="M384.054 476.35L295.104 333.32L368.027 290.206L467.541 437.715L384.054 476.35Z" fill="#4E9CFE"/>
<path d="M280.241 283.11C280.781 286.354 278.577 289.44 275.339 289.981C272.101 290.521 269.021 288.314 268.481 285.07C267.941 281.826 270.145 278.74 273.383 278.2C276.621 277.659 279.701 279.867 280.241 283.11Z" fill="white"/>
<path d="M292.383 280.589C292.923 283.833 290.719 286.919 287.481 287.459C284.243 288 281.163 285.792 280.623 282.549C280.083 279.305 282.287 276.219 285.525 275.678C288.786 275.138 291.844 277.323 292.383 280.589Z" fill="white"/>
<path d="M312.216 272.48C312.755 275.724 310.552 278.81 307.314 279.351C304.076 279.891 300.995 277.684 300.455 274.44C299.916 271.196 302.119 268.11 305.357 267.57C308.618 267.029 311.676 269.237 312.216 272.48Z" fill="white"/>
<path d="M329.261 265.292C329.801 268.536 327.597 271.622 324.359 272.162C321.121 272.703 318.041 270.495 317.501 267.252C316.961 264.008 319.165 260.922 322.403 260.381C325.664 259.841 328.722 262.026 329.261 265.292Z" fill="white"/>
<path d="M343.899 255.336C344.439 258.58 342.235 261.666 338.997 262.207C335.759 262.747 332.679 260.54 332.139 257.296C331.599 254.052 333.803 250.966 337.041 250.426C340.279 249.885 343.36 252.093 343.899 255.336Z" fill="white"/>
<path d="M22.6392 405.109C24.9328 401.348 79.2144 311.583 81.4855 307.821C92.8411 289.125 101.138 269.01 109.166 248.647C117.284 228.036 112.899 203.483 97.9229 187.512C97.2484 186.791 94.4601 185.485 93.4932 185.26C91.4919 184.809 89.648 186.949 89.6255 188.999C89.6031 191.049 90.7948 192.918 92.0091 194.563C94.0328 197.333 96.259 200.059 97.3383 203.325C98.4176 206.591 98.0579 210.601 95.4719 212.853C91.7392 213.101 90.0303 208.348 89.4457 204.654C87.3095 191.296 85.5555 177.376 81.553 164.446C80.6086 161.405 76.7859 158.296 73.8627 159.535C72.0188 160.324 71.5017 162.666 71.2768 164.671C69.9501 176.745 71.6591 188.728 72.7159 200.847C72.2887 190.913 70.0176 181.205 69.5903 171.271C69.4779 168.591 69.7477 164.919 68.5335 162.531C67.3192 160.143 64.6884 158.251 62.08 158.747C59.7414 159.197 58.0774 161.405 57.5153 163.703C56.9306 166 56.8182 169.334 57.0655 171.699C58.2348 182.511 58.4597 193.436 57.7401 204.294C57.6052 195.576 56.6383 186.881 54.8169 178.367C54.2098 175.573 53.2429 172.42 50.657 171.226C47.5539 169.807 43.8212 172.195 42.472 175.303C41.1003 178.412 41.4376 181.971 41.6175 185.372C43.1016 211.907 41.2802 254.886 -58.4236 385.242L22.6392 405.109Z" fill="#BDA193"/>
<path d="M61.1124 159.538C62.1693 163.638 60.8201 167.715 57.6271 170.463C56.6152 171.319 58.0768 172.783 59.0887 171.927C62.8439 168.728 64.328 163.75 63.1137 158.997C62.7764 157.713 60.7752 158.254 61.1124 159.538Z" fill="#4B3425"/>
<path d="M74.1766 161.204C75.7731 164.402 74.8961 168.434 72.0404 170.642C71.006 171.43 72.0404 173.232 73.0747 172.421C76.8524 169.493 78.0667 164.47 75.953 160.167C75.3683 158.973 73.5919 160.01 74.1766 161.204Z" fill="#4B3425"/>
<path d="M47.2841 171.407C48.0711 174.471 47.5089 177.624 45.7325 180.26C44.8555 181.566 43.6863 182.625 42.3371 183.436C41.6175 183.864 40.9205 183.999 40.5157 184.765C40.2684 185.26 40.3808 185.869 40.8755 186.184C40.9429 186.229 41.0329 186.274 41.1004 186.319C41.595 186.635 42.2022 186.409 42.517 185.959C42.562 185.914 42.5844 185.846 42.6294 185.801C43.3939 184.72 41.595 183.684 40.853 184.765C40.808 184.81 40.7855 184.878 40.7406 184.923C41.2128 184.81 41.685 184.675 42.1572 184.562C42.0897 184.517 41.9998 184.472 41.9323 184.427C42.0448 184.9 42.1797 185.373 42.2921 185.846C42.6744 185.08 44.878 184.292 45.6651 183.549C46.8118 182.467 47.7563 181.138 48.4308 179.719C49.7575 176.926 50.0274 173.885 49.2628 170.912C48.948 169.583 46.9692 170.123 47.2841 171.407Z" fill="#4B3425"/>
<path d="M55.8516 187.49C55.8741 193.774 55.4918 200.014 54.6374 206.231C54.4575 207.538 56.4363 208.078 56.6162 206.772C57.4706 200.374 57.9204 193.955 57.8979 187.467C57.8979 186.161 55.8291 186.161 55.8516 187.49Z" fill="#4B3425"/>
<path d="M69.9945 177.779C70.759 188.254 71.5235 198.728 72.3105 209.202C72.4005 210.509 74.4692 210.531 74.3568 209.202C73.5922 198.728 72.8277 188.254 72.0407 177.779C71.9507 176.473 69.9045 176.473 69.9945 177.779Z" fill="#4B3425"/>
<path d="M44.4727 216.974C46.564 217.064 48.5877 217.514 50.544 218.303C51.7808 218.798 52.2979 216.794 51.0837 216.321C48.9475 215.465 46.7663 215.014 44.4727 214.924C43.1461 214.856 43.1461 216.929 44.4727 216.974Z" fill="white"/>
<path d="M59.4705 219.429C61.899 219.947 64.3275 220.172 66.801 220.105C68.1276 220.06 68.1276 218.01 66.801 218.055C64.5074 218.122 62.2587 217.942 60.0101 217.447C58.7284 217.176 58.1887 219.159 59.4705 219.429Z" fill="white"/>
<path d="M76.2678 219.679C78.9436 219.927 81.6195 220.175 84.2953 220.423C85.622 220.535 85.5995 218.485 84.2953 218.373C81.6195 218.125 78.9436 217.877 76.2678 217.629C74.9636 217.494 74.9636 219.544 76.2678 219.679Z" fill="white"/>
<path d="M103.275 226.077C105.411 227.135 107.66 227.721 110.043 227.834C111.37 227.901 111.37 225.829 110.043 225.784C108.042 225.694 106.108 225.198 104.309 224.32C103.14 223.712 102.083 225.491 103.275 226.077Z" fill="white"/>
<path d="M100.238 191.566C97.0451 192.985 94.0095 189.922 94.9989 186.723C95.3811 185.461 93.4024 184.898 93.0201 186.182C91.4685 191.273 96.5729 195.44 101.295 193.345C102.487 192.805 101.43 191.048 100.238 191.566Z" fill="#4B3425"/>
<path d="M72.2207 333.32L-0.701996 290.206L-14.3736 309.735C10.1139 324.647 34.1966 340.167 58.8189 354.651L72.2207 333.32Z" fill="white"/>
<path d="M-14.3509 309.759L-92 418.619L-14.3509 468.8L58.8417 354.675C34.2193 340.191 10.114 324.671 -14.3509 309.759Z" fill="#4E9CFE"/>
<path d="M43.9564 358.189C43.9564 360.486 42.0901 362.356 39.7965 362.356C37.5029 362.356 35.6365 360.486 35.6365 358.189C35.6365 355.891 37.5029 354.021 39.7965 354.021C42.0901 354.021 43.9564 355.891 43.9564 358.189Z" fill="#4B3425"/>
<path d="M35.6362 373.823C35.6362 376.12 33.7698 377.99 31.4762 377.99C29.1826 377.99 27.3163 376.12 27.3163 373.823C27.3163 371.525 29.1826 369.655 31.4762 369.655C33.7698 369.655 35.6362 371.525 35.6362 373.823Z" fill="#4B3425"/>
<path d="M205.226 145.68C210.712 133.314 219.032 122.569 229.646 114.19C230.68 113.379 229.219 111.914 228.184 112.725C217.458 121.195 208.981 132.12 203.449 144.622C202.91 145.838 204.686 146.897 205.226 145.68Z" fill="white"/>
<path d="M240.486 107.748C244.151 106.104 247.973 105 251.931 104.392C253.235 104.189 252.673 102.207 251.391 102.41C247.231 103.04 243.274 104.257 239.451 105.991C238.237 106.509 239.271 108.289 240.486 107.748Z" fill="white"/>
<path d="M95.0445 115.137C103.589 106.6 115.327 102.32 127.357 103.311C128.684 103.424 128.661 101.351 127.357 101.261C114.832 100.225 102.487 104.775 93.5829 113.673C92.6609 114.619 94.1225 116.061 95.0445 115.137Z" fill="white"/>
<g filter="url(#filter0_ddddd_3073_5323)">
<rect x="-180" y="417" width="746" height="746" rx="373" fill="white"/>
</g>
</g>
<defs>
<filter id="filter0_ddddd_3073_5323" x="-290" y="33" width="966" height="1151" filterUnits="userSpaceOnUse" color-interpolation-filters="sRGB">
<feFlood flood-opacity="0" result="BackgroundImageFix"/>
<feColorMatrix in="SourceAlpha" type="matrix" values="0 0 0 0 0 0 0 0 0 0 0 0 0 0 0 0 0 0 127 0" result="hardAlpha"/>
<feOffset/>
<feColorMatrix type="matrix" values="0 0 0 0 0.294118 0 0 0 0 0.203922 0 0 0 0 0.145098 0 0 0 0.05 0"/>
<feBlend mode="normal" in2="BackgroundImageFix" result="effect1_dropShadow_3073_5323"/>
<feColorMatrix in="SourceAlpha" type="matrix" values="0 0 0 0 0 0 0 0 0 0 0 0 0 0 0 0 0 0 127 0" result="hardAlpha"/>
<feOffset dy="-17"/>
<feGaussianBlur stdDeviation="19"/>
<feColorMatrix type="matrix" values="0 0 0 0 0.294118 0 0 0 0 0.203922 0 0 0 0 0.145098 0 0 0 0.05 0"/>
<feBlend mode="normal" in2="effect1_dropShadow_3073_5323" result="effect2_dropShadow_3073_5323"/>
<feColorMatrix in="SourceAlpha" type="matrix" values="0 0 0 0 0 0 0 0 0 0 0 0 0 0 0 0 0 0 127 0" result="hardAlpha"/>
<feOffset dy="-69"/>
<feGaussianBlur stdDeviation="34.5"/>
<feColorMatrix type="matrix" values="0 0 0 0 0.294118 0 0 0 0 0.203922 0 0 0 0 0.145098 0 0 0 0.04 0"/>
<feBlend mode="normal" in2="effect2_dropShadow_3073_5323" result="effect3_dropShadow_3073_5323"/>
<feColorMatrix in="SourceAlpha" type="matrix" values="0 0 0 0 0 0 0 0 0 0 0 0 0 0 0 0 0 0 127 0" result="hardAlpha"/>
<feOffset dy="-154"/>
<feGaussianBlur stdDeviation="46.5"/>
<feColorMatrix type="matrix" values="0 0 0 0 0.294118 0 0 0 0 0.203922 0 0 0 0 0.145098 0 0 0 0.03 0"/>
<feBlend mode="normal" in2="effect3_dropShadow_3073_5323" result="effect4_dropShadow_3073_5323"/>
<feColorMatrix in="SourceAlpha" type="matrix" values="0 0 0 0 0 0 0 0 0 0 0 0 0 0 0 0 0 0 127 0" result="hardAlpha"/>
<feOffset dy="-274"/>
<feGaussianBlur stdDeviation="55"/>
<feColorMatrix type="matrix" values="0 0 0 0 0.294118 0 0 0 0 0.203922 0 0 0 0 0.145098 0 0 0 0.01 0"/>
<feBlend mode="normal" in2="effect4_dropShadow_3073_5323" result="effect5_dropShadow_3073_5323"/>
<feBlend mode="normal" in="SourceGraphic" in2="effect5_dropShadow_3073_5323" result="shape"/>
</filter>
<clipPath id="clip0_3073_5323">
<rect width="375" height="812" fill="white"/>
</clipPath>
</defs>
</svg>
